<svg xmlns="http://www.w3.org/2000/svg" width="74.021088mm" height="49.510452mm" viewBox="0 0 74.021088 49.510452" background-color="none">
  <g transform="translate(-187.274589 -53.665391) scale(.25937)">
    <g fill-rule="evenodd" transform="translate(1010.3632 -392.0895) scale(.75588)">
      <g transform="translate(-392.88 765.27)"/>
    </g>
    
    
    
    
    
  </g>
  
  
  <!-- Scattered Cake Crumbs - randomly placed across different elevations -->
  <!-- Left area crumbs -->
  
  
  
  
  
  
  
  
  
  
  
  
  
  
  
  
  
  
  
  
  
  
  
  
  
  
  
  
  
  
  <circle cx="39.8" cy="48.7" r="0.55" fill="#8b5e3b"/>
  
  <!-- Middle-right area crumbs -->
  <path d="M42.3 46.1c0.3 0.3 0.8 0 0.7-0.5s-0.6-0.5-0.9-0.1-0.1 0.5 0.2 0.6z" fill="#6a4b18"/>
  <path d="M44.6 49.4c0.5 0.3 1.1-0.1 1-0.7s-0.9-0.5-1.2-0.1-0.3 0.6 0.2 0.8z" fill="#8b5e3b"/>
  <path d="M48.7 47.8c0.4 0.2 0.9-0.1 0.8-0.6s-0.7-0.6-1-0.1-0.2 0.5 0.2 0.7z" fill="#6a4b18"/>
  <ellipse cx="41.4" cy="47.5" rx="0.7" ry="0.5" fill="#8b5e3b"/>
  <circle cx="43.7" cy="48.1" r="0.65" fill="#6a4b18"/>
  <circle cx="47.3" cy="49.6" r="0.5" fill="#8b5e3b"/>
  <circle cx="46.1" cy="46.4" r="0.45" fill="#6a4b18"/>
  <circle cx="42.9" cy="45.8" r="0.4" fill="#8b5e3b"/>
  <circle cx="41.3" cy="46.5" r="0.25" fill="#8b5e3b"/>
  <circle cx="45.2" cy="47.6" r="0.3" fill="#6a4b18"/>
  <circle cx="48.9" cy="46.3" r="0.2" fill="#8b5e3b"/>
  
  
  
  
  
  
  
  
  
  
  
  
</svg>