<svg xmlns="http://www.w3.org/2000/svg" xmlns:xlink="http://www.w3.org/1999/xlink" version="1.1" id="Capa_1" x="0px" y="0px" viewBox="0 0 1983 2270" style="enable-background:new 0 0 1983 2270;" xml:space="preserve">
<rect x="0" y="0" style="display:none" width="1982.644" height="2269.697"/>

<g>
	<g>
		<path style="fill:#2D1709;" d="M1091.715,1387.632c-119.07-45.145-49.891-95.055-199.616-142.993    c-159.778-51.156-231.858-127.559-231.858-127.559v868.995h662.161v-644.479    C1322.402,1341.597,1186.212,1423.46,1091.715,1387.632z"/>
	</g>
</g>

<g>
	<g>
		<g>
			<g>
				<rect x="660.242" y="619.526" style="fill:#5E3019;" width="165.54" height="263.094"/>
				<polygon style="fill:#512813;" points="806.444,636.648 806.444,865.498 679.579,865.498 660.242,882.62 825.782,882.62       825.782,619.526     "/>
				<rect x="679.579" y="636.648" style="fill:#733B22;" width="126.864" height="228.851"/>
				<polygon style="fill:#9A6252;" points="825.782,619.526 660.242,619.526 679.579,636.648 806.444,636.648     "/>
			</g>
			<g>
				<rect x="689.591" y="647.661" style="fill:#5E3019;" width="106.841" height="206.825"/>
				<rect x="702.072" y="658.711" style="fill:#733B22;" width="81.879" height="184.724"/>
				<g>
					<path style="fill:#512813;" d="M775.28,832.584h-64.537V669.562h64.537V832.584z M715.343,827.984h55.337V674.162h-55.337       V827.984z"/>
				</g>
				<polygon style="fill:#9A6252;" points="796.432,647.661 689.591,647.661 702.072,658.711 783.951,658.711     "/>
			</g>
		</g>
		<g>
			<g>
				<rect x="825.782" y="619.526" style="fill:#5E3019;" width="165.54" height="263.094"/>
				<polygon style="fill:#512813;" points="971.984,636.648 971.984,865.498 845.12,865.498 825.782,882.62 991.322,882.62       991.322,619.526     "/>
				<rect x="845.12" y="636.648" style="fill:#733B22;" width="126.864" height="228.851"/>
				<polygon style="fill:#9A6252;" points="991.322,619.526 825.782,619.526 845.12,636.648 971.984,636.648     "/>
			</g>
			<g>
				<rect x="855.132" y="647.661" style="fill:#5E3019;" width="106.841" height="206.825"/>
				<rect x="867.612" y="658.711" style="fill:#733B22;" width="81.879" height="184.724"/>
				<g>
					<path style="fill:#512813;" d="M940.82,832.584h-64.537V669.562h64.537V832.584z M880.884,827.984h55.337V674.162h-55.337       V827.984z"/>
				</g>
				<polygon style="fill:#9A6252;" points="961.972,647.661 855.132,647.661 867.612,658.711 949.491,658.711     "/>
			</g>
		</g>
		<g>
			<g>
				<rect x="991.322" y="619.526" style="fill:#5E3019;" width="165.54" height="263.094"/>
				<polygon style="fill:#512813;" points="1137.524,636.648 1137.524,865.498 1010.66,865.498 991.322,882.62 1156.862,882.62       1156.862,619.526     "/>
				<rect x="1010.66" y="636.648" style="fill:#733B22;" width="126.864" height="228.851"/>
				<polygon style="fill:#9A6252;" points="1156.862,619.526 991.322,619.526 1010.66,636.648 1137.524,636.648     "/>
			</g>
			<g>
				<rect x="1020.672" y="647.661" style="fill:#5E3019;" width="106.841" height="206.825"/>
				<rect x="1033.152" y="658.711" style="fill:#733B22;" width="81.879" height="184.724"/>
				<g>
					<path style="fill:#512813;" d="M1106.361,832.584h-64.537V669.562h64.537V832.584z M1046.424,827.984h55.337V674.162h-55.337       V827.984z"/>
				</g>
				<polygon style="fill:#9A6252;" points="1127.512,647.661 1020.672,647.661 1033.152,658.711 1115.032,658.711     "/>
			</g>
		</g>
		<g>
			<g>
				<rect x="1156.862" y="619.526" style="fill:#5E3019;" width="165.54" height="263.094"/>
				<polygon style="fill:#512813;" points="1303.064,636.648 1303.064,865.498 1176.2,865.498 1156.862,882.62 1322.402,882.62       1322.402,619.526     "/>
				<rect x="1176.2" y="636.648" style="fill:#733B22;" width="126.864" height="228.851"/>
				<polygon style="fill:#9A6252;" points="1322.402,619.526 1156.862,619.526 1176.2,636.648 1303.064,636.648     "/>
			</g>
			<g>
				<rect x="1186.212" y="647.661" style="fill:#5E3019;" width="106.841" height="206.825"/>
				<rect x="1198.693" y="658.711" style="fill:#733B22;" width="81.879" height="184.724"/>
				<g>
					<path style="fill:#512813;" d="M1271.901,832.584h-64.537V669.562h64.537V832.584z M1211.964,827.984h55.337V674.162h-55.337       V827.984z"/>
				</g>
				<polygon style="fill:#9A6252;" points="1293.052,647.661 1186.212,647.661 1198.693,658.711 1280.572,658.711     "/>
			</g>
		</g>
		<g>
			<g>
				<rect x="825.782" y="882.62" style="fill:#5E3019;" width="165.54" height="263.094"/>
				<polygon style="fill:#512813;" points="971.984,899.742 971.984,1128.592 845.12,1128.592 825.782,1145.714 991.322,1145.714       991.322,882.62     "/>
				<rect x="845.12" y="899.742" style="fill:#733B22;" width="126.864" height="228.851"/>
				<polygon style="fill:#9A6252;" points="991.322,882.62 825.782,882.62 845.12,899.742 971.984,899.742     "/>
			</g>
			<g>
				<rect x="855.132" y="910.754" style="fill:#5E3019;" width="106.841" height="206.825"/>
				<rect x="867.612" y="921.805" style="fill:#733B22;" width="81.879" height="184.724"/>
				<g>
					<path style="fill:#512813;" d="M940.82,1095.678h-64.537V932.656h64.537V1095.678z M880.884,1091.078h55.337V937.256h-55.337       V1091.078z"/>
				</g>
				<polygon style="fill:#9A6252;" points="961.972,910.754 855.132,910.754 867.612,921.805 949.491,921.805     "/>
			</g>
		</g>
		<g>
			<g>
				<rect x="991.322" y="882.62" style="fill:#5E3019;" width="165.54" height="263.094"/>
				<polygon style="fill:#512813;" points="1137.524,899.742 1137.524,1128.592 1010.66,1128.592 991.322,1145.714       1156.862,1145.714 1156.862,882.62     "/>
				<rect x="1010.66" y="899.742" style="fill:#733B22;" width="126.864" height="228.851"/>
				<polygon style="fill:#9A6252;" points="1156.862,882.62 991.322,882.62 1010.66,899.742 1137.524,899.742     "/>
			</g>
			<g>
				<rect x="1020.672" y="910.754" style="fill:#5E3019;" width="106.841" height="206.825"/>
				<rect x="1033.152" y="921.805" style="fill:#733B22;" width="81.879" height="184.724"/>
				<g>
					<path style="fill:#512813;" d="M1106.361,1095.678h-64.537V932.656h64.537V1095.678z M1046.424,1091.078h55.337V937.256       h-55.337V1091.078z"/>
				</g>
				<polygon style="fill:#9A6252;" points="1127.512,910.754 1020.672,910.754 1033.152,921.805 1115.032,921.805     "/>
			</g>
		</g>
		<g>
			<g>
				<rect x="1156.862" y="882.62" style="fill:#5E3019;" width="165.54" height="263.094"/>
				<polygon style="fill:#512813;" points="1303.064,899.742 1303.064,1128.592 1176.2,1128.592 1156.862,1145.714       1322.402,1145.714 1322.402,882.62     "/>
				<rect x="1176.2" y="899.742" style="fill:#733B22;" width="126.864" height="228.851"/>
				<polygon style="fill:#9A6252;" points="1322.402,882.62 1156.862,882.62 1176.2,899.742 1303.064,899.742     "/>
			</g>
			<g>
				<rect x="1186.212" y="910.754" style="fill:#5E3019;" width="106.841" height="206.825"/>
				<rect x="1198.693" y="921.805" style="fill:#733B22;" width="81.879" height="184.724"/>
				<g>
					<path style="fill:#512813;" d="M1271.901,1095.678h-64.537V932.656h64.537V1095.678z M1211.964,1091.078h55.337V937.256       h-55.337V1091.078z"/>
				</g>
				<polygon style="fill:#9A6252;" points="1293.052,910.754 1186.212,910.754 1198.693,921.805 1280.572,921.805     "/>
			</g>
		</g>
		<g>
			<polygon style="fill:#512813;" points="825.782,1145.714 825.782,1145.714 825.782,1145.714    "/>
			<path style="fill:#512813;" d="M806.444,1199.186c6.37,3.485,12.823,6.771,19.338,9.801v-63.273l-19.338,17.122V1199.186z"/>
			<path style="fill:#733B22;" d="M750.786,1162.836c4.927,3.71,9.988,7.391,15.158,11.013h30.488v19.66     c3.311,1.944,6.649,3.837,10.012,5.677v-36.35H750.786z"/>
			<path style="fill:#9A6252;" d="M806.444,1162.836l19.338-17.122l0,0h-96.666c6.873,5.68,14.115,11.431,21.67,17.122H806.444z"/>
			<path style="fill:#5E3019;" d="M783.951,1184.899v0.976c4.111,2.61,8.272,5.163,12.481,7.634v-19.66L783.951,1184.899z"/>
			<path style="fill:#733B22;" d="M782.412,1184.899c0.511,0.328,1.026,0.651,1.538,0.976v-0.976H782.412z"/>
			<path style="fill:#9A6252;" d="M796.432,1173.849h-30.488c5.376,3.765,10.87,7.464,16.469,11.05h1.538L796.432,1173.849z"/>
			<rect x="971.984" y="1162.836" style="fill:#5E3019;" width="0" height="99.478"/>
			<path style="fill:#5E3019;" d="M845.12,1217.126v-54.29l-19.338-17.122v63.273C832.18,1211.963,838.633,1214.694,845.12,1217.126     z"/>
			<polygon style="fill:#512813;" points="991.322,1145.714 991.322,1145.714 991.322,1145.714    "/>
			<path style="fill:#512813;" d="M971.984,1262.314c6.862,4.576,13.268,9.393,19.338,14.396v-130.997l-19.338,17.122V1262.314z"/>
			<path style="fill:#733B22;" d="M845.12,1162.836v54.29c3.33,1.249,6.669,2.418,10.012,3.503v-46.78h106.841v82.161     c3.458,2.039,6.778,4.149,10.012,6.305v-99.478H845.12z"/>
			<polygon style="fill:#9A6252;" points="971.984,1162.836 971.984,1162.836 991.322,1145.714 825.782,1145.714 845.12,1162.836         "/>
			<path style="fill:#5E3019;" d="M855.132,1173.849v46.78c4.155,1.349,8.318,2.553,12.481,3.624v-39.354L855.132,1173.849z"/>
			<path style="fill:#5E3019;" d="M949.491,1184.899v64.327c4.331,2.173,8.493,4.433,12.481,6.784v-82.161L949.491,1184.899z"/>
			<path style="fill:#733B22;" d="M867.612,1184.899v39.354c2.891,0.744,5.782,1.429,8.671,2.028v-30.532h64.537v49.355     c2.977,1.33,5.856,2.709,8.671,4.121v-64.327H867.612z"/>
			<path style="fill:#733B22;" d="M880.884,1200.349v26.83c21.401,3.85,39.519,9.323,55.337,15.962v-42.791H880.884z"/>
			<path style="fill:#512813;" d="M876.283,1195.75v30.532c1.534,0.318,3.068,0.622,4.6,0.898v-26.83h55.337v42.791     c1.545,0.649,3.098,1.293,4.6,1.964v-49.355H876.283z"/>
			<polygon style="fill:#9A6252;" points="949.491,1184.899 961.972,1173.849 855.132,1173.849 867.612,1184.899    "/>
			<path style="fill:#5E3019;" d="M1010.66,1294.026v-131.19l-19.338-17.122v130.997     C998.095,1282.294,1004.477,1288.094,1010.66,1294.026z"/>
			<polygon style="fill:#512813;" points="1156.862,1145.714 1156.862,1145.714 1156.862,1145.714    "/>
			<path style="fill:#512813;" d="M1137.524,1367.365c6.287-0.418,12.756-1.133,19.338-2.089v-219.562l-19.338,17.122V1367.365z"/>
			<path style="fill:#733B22;" d="M1010.66,1162.836v131.19c3.383,3.247,6.709,6.532,10.012,9.837v-130.015h106.841v193.924     c3.278-0.047,6.616-0.183,10.012-0.408v-204.529H1010.66z"/>
			<polygon style="fill:#9A6252;" points="1137.524,1162.836 1156.862,1145.714 1156.862,1145.714 991.322,1145.714      991.322,1145.714 1010.66,1162.836    "/>
			<path style="fill:#5E3019;" d="M1020.672,1173.849v130.015c4.173,4.177,8.312,8.388,12.481,12.602v-131.567L1020.672,1173.849z"/>
			<path style="fill:#5E3019;" d="M1115.032,1184.899v182.567c4.033,0.276,8.204,0.368,12.481,0.307v-193.924L1115.032,1184.899z"/>
			<path style="fill:#733B22;" d="M1033.152,1184.899v131.567c2.866,2.898,5.752,5.796,8.671,8.686V1195.75h64.537v163.022h-25.193     c9.382,5.094,20.928,7.811,33.864,8.693v-182.567H1033.152z"/>
			<path style="fill:#733B22;" d="M1101.761,1200.349h-55.337v129.311c8.625,8.376,17.657,16.634,27.668,24.511h27.669V1200.349z"/>
			<path style="fill:#512813;" d="M1106.361,1195.75h-64.537v129.402c1.521,1.506,3.055,3.009,4.6,4.509v-129.311h55.337v153.822     h-27.669c2.185,1.72,4.562,3.235,7.075,4.6h25.193V1195.75z"/>
			<polygon style="fill:#9A6252;" points="1115.032,1184.899 1127.512,1173.849 1020.672,1173.849 1033.152,1184.899    "/>
			<path style="fill:#5E3019;" d="M1176.2,1361.863v-199.027l-19.338-17.122v219.562     C1163.224,1364.351,1169.69,1363.198,1176.2,1361.863z"/>
			<rect x="1224.475" y="1241.425" style="fill:#5E3019;" width="157.18" height="0"/>
			<path style="fill:#512813;" d="M1322.402,1145.714l-19.338,17.122v157.179c12.082-5.19,19.338-8.645,19.338-8.645V1145.714     L1322.402,1145.714z"/>
			<path style="fill:#733B22;" d="M1176.2,1162.836v199.027c3.33-0.683,6.669-1.412,10.012-2.184v-185.83h106.841v150.392     c3.622-1.502,6.968-2.917,10.012-4.225v-157.18H1176.2z"/>
			<polygon style="fill:#9A6252;" points="1303.064,1162.836 1303.064,1162.836 1322.402,1145.714 1156.862,1145.714      1176.2,1162.836    "/>
			<path style="fill:#5E3019;" d="M1186.212,1173.849v185.83c4.163-0.962,8.327-1.985,12.481-3.066v-171.714L1186.212,1173.849z"/>
			<path style="fill:#5E3019;" d="M1280.572,1184.899v144.406c4.441-1.763,8.609-3.459,12.481-5.065v-150.392L1280.572,1184.899z"/>
			<path style="fill:#733B22;" d="M1211.964,1200.349v152.629c19.735-5.669,38.778-12.273,55.337-18.533v-134.096H1211.964z"/>
			<path style="fill:#733B22;" d="M1198.693,1184.899v171.714c2.899-0.753,5.79-1.533,8.672-2.335V1195.75h64.537v136.943     c2.984-1.148,5.881-2.28,8.671-3.387v-144.406H1198.693z"/>
			<path style="fill:#512813;" d="M1207.364,1195.75v158.528c1.537-0.427,3.07-0.86,4.6-1.299v-152.629h55.337v134.096     c1.555-0.588,3.09-1.172,4.6-1.753V1195.75H1207.364z"/>
			<polygon style="fill:#9A6252;" points="1280.572,1184.899 1293.052,1173.849 1186.212,1173.849 1198.693,1184.899    "/>
		</g>
		<path style="fill:#DEA66B;" d="M660.242,1080.29c0,0,112.438,127.426,220.642,146.889    c108.204,19.463,133.423,79.95,193.208,126.993c59.786,47.043,248.31-42.802,248.31-42.802v30.227    c0,0-136.19,81.864-230.688,46.035c-119.07-45.145-49.891-95.055-199.616-142.993    c-159.778-51.156-231.858-127.559-231.858-127.559V1080.29z"/>
		<path style="fill:#E5BC78;" d="M1074.092,1354.172c-59.785-47.043-85.004-107.529-193.208-126.993    c-108.205-19.463-220.642-146.889-220.642-146.889v6.106c0,0,112.438,127.426,220.642,146.889    c108.204,19.463,133.423,79.95,193.208,126.993c59.786,47.043,248.31-42.802,248.31-42.802v-6.106    C1322.402,1311.37,1133.878,1401.215,1074.092,1354.172z"/>
		<path style="fill:#DB9058;" d="M1091.715,1376.314c-119.07-45.145-51.01-89.88-200.735-137.817    c-159.777-51.156-230.738-132.734-230.738-132.734v11.318c0,0,72.08,76.403,231.858,127.559    c149.724,47.938,80.546,97.847,199.616,142.993c94.497,35.828,230.688-46.035,230.688-46.035v-11.318    C1322.402,1330.279,1186.212,1412.143,1091.715,1376.314z"/>
		<g>
			<path style="fill:#5E3019;" d="M679.579,1100.583V899.742l-19.338-17.122v197.67     C660.242,1080.29,667.3,1088.289,679.579,1100.583z"/>
			<path style="fill:#512813;" d="M806.444,1128.592h-97.24c6.195,5.535,12.854,11.288,19.912,17.122h96.666V882.62l-19.338,17.122     V1128.592z"/>
			<path style="fill:#733B22;" d="M806.444,899.742H679.579v200.841c3.029,3.033,6.375,6.326,10.012,9.826V910.754h106.841v206.825     h-99.277c3.782,3.537,7.805,7.221,12.049,11.013h97.24V899.742z"/>
			<polygon style="fill:#9A6252;" points="806.444,899.742 825.782,882.62 660.242,882.62 679.579,899.742    "/>
			<path style="fill:#5E3019;" d="M796.432,910.754l-12.481,11.051v184.724h-81.879V921.805l-12.481-11.051v199.655     c2.394,2.304,4.926,4.704,7.563,7.17h99.277V910.754z"/>
			<rect x="715.343" y="937.256" style="fill:#733B22;" width="55.337" height="153.822"/>
			<path style="fill:#733B22;" d="M702.072,1106.529h81.879V921.805h-81.879V1106.529z M710.743,932.656h64.537v163.023h-64.537     V932.656z"/>
			<path style="fill:#512813;" d="M775.28,932.656h-64.537v163.023h64.537V932.656z M770.681,1091.078h-55.337V937.256h55.337     V1091.078z"/>
			<polygon style="fill:#9A6252;" points="783.951,921.805 796.432,910.754 689.591,910.754 702.072,921.805    "/>
		</g>
		<g>
			<g>
				<path style="fill:#392116;" d="M1292.031,1802.77v-445.222c-45.558,21.801-133.388,55.459-200.316,30.084      c-119.07-45.145-49.892-95.055-199.616-142.993c-104.261-33.381-171.156-77.5-205.072-104.138v662.27H1292.031z"/>
			</g>
		</g>
		<g>
			<g>
				<path style="fill:#351E11;" d="M1234.763,1730.458c-25.474-5.806-52.014-4.174-77.845-1.904      c-29.025,2.55-57.776,7.325-86.514,12.016c-55.5,9.058-110.674,15.608-166.998,15.405      c-52.77-0.191-106.178-4.893-157.425-17.928c-15.276-3.885-31.709-8.487-47.428-14.783v79.507h581.95v-57.18      C1265.622,1739.52,1250.523,1734.05,1234.763,1730.458z"/>
			</g>
		</g>
		<g>
			<g>
				<path style="fill:#3E271B;" d="M689.501,1251.761c17.215,25.303,39.367,47.391,63.037,66.675      c41.445,33.765,90.208,58.897,139.926,78.058c56.81,21.895,115.716,39.22,175.239,51.958      c73.945,15.823,149.081,23.224,224.328,22.97v-113.873c-45.558,21.801-133.388,55.459-200.316,30.084      c-119.07-45.145-49.892-95.055-199.616-142.993c-104.261-33.381-171.156-77.5-205.072-104.138v107.57      C687.847,1249.303,688.667,1250.536,689.501,1251.761z"/>
			</g>
		</g>
		<g>
			<path style="fill:#462B1F;" d="M700.772,1150.868c-5.064-3.676-9.651-7.151-13.745-10.367v662.27h13.745V1150.868z"/>
		</g>
		<g>
			<g>
				<path style="fill:#462B1F;" d="M1280.504,1362.881v439.89h11.527v-445.222      C1288.449,1359.263,1284.578,1361.055,1280.504,1362.881z"/>
			</g>
		</g>
		<g>
			<g>
				<g>
					<rect x="660.242" y="1807.539" style="fill:#DB9058;" width="662.161" height="139.364"/>
				</g>
			</g>
			<g>
				<g>
					<rect x="689.591" y="1807.539" style="fill:#DEA66B;" width="603.461" height="139.364"/>
				</g>
			</g>
			<g>
				<g>
					<rect x="1281.133" y="1807.539" style="fill:#E0AD77;" width="11.919" height="139.364"/>
				</g>
			</g>
			<g>
				<g>
					<rect x="689.591" y="1807.539" style="fill:#E0AD77;" width="11.919" height="139.364"/>
				</g>
			</g>
		</g>
	</g>
	 <text x="50%" y="83.5%" text-anchor="middle" font-family="'Dancing Script', cursive" font-size="300%" fill="#3C2A21">
    CHOCOLATE
  </text>
</g>






</svg>