<?xml version="1.0" encoding="utf-8"?>
<svg xmlns="http://www.w3.org/2000/svg" version="1.1" id="Layer_1" x="0px" y="0px" viewBox="0 0 4000 4000" style="enable-background:new 0 0 4000 4000;">
  <g style="transform-origin: 1995.12px 1819.15px;" transform="matrix(-1, 0, 0, 1, 0.000018, -0.000246)">
    <g>
      <g/>
    </g>
    <g>
      <g>
        <g>
          <path style="fill:#FFFFFF;" d="M804.646,2526.967c0,0,1765.297-1298.575,2564.76-1952.28c0,0,284.891,1035.768-1563.591,2095.83      l-132.508-317.282c0,0-194.345,2.945-244.403,161.954c-50.058,159.009-38.28,200.234-270.905,288.572      s-85.394,241.458-353.354,259.126C536.686,3080.554,539.63,2771.37,804.646,2526.967z"/>
        </g>
      </g>
      <g>
        <g>
          <path style="fill:#AAACB5;" d="M1536.948,1990.421l141.62,360.608c0.001,0.003,0.003,0.004,0.004,0.007l125.947,301.583      c-12.659-27.162-31.449-78.22-25.158-141.768c2.613-26.393,9.738-98.368,61.915-137.234      c10.742-8.002,20.167-12.197,22.932-13.438c190.669-85.609,390.05-161.594,557.978-286.028      c284.686-210.952,681.669-615.5,956.927-1344.984c-0.337-74.992-9.125-125.123-13.192-144.26      C2902.98,962.941,2116.034,1557.711,1536.948,1990.421z"/>
        </g>
      </g>
      <g>
        <g>
          <path style="fill:#AD5833;" d="M737.667,2913.315c88.659,11.661,131.375-46.477,176.577-108.064      c24.804-33.796,50.455-68.746,84.475-91.963c35.184-24.008,77.599-38.694,118.622-52.896      c69.928-24.208,135.972-47.073,160.843-112.271l0.423-1.103c41.293-108.268,97.827-256.16,337.45-323.954l-88.585-225.565      c-405.51,302.958-706.864,524.806-719.187,533.873c-61.008,56.305-109.638,117.968-143.503,178.965      c-0.024,0.057-0.015,0.118-0.04,0.175c-0.93,2.602-33.529,100.203,1.226,159.45      C680.27,2894.344,704.389,2908.93,737.667,2913.315z M1078.029,2457.568c29.635,0,53.742,24.108,53.742,53.743      c0,29.629-24.108,53.737-53.742,53.737c-29.629,0-53.737-24.108-53.737-53.737      C1024.292,2481.676,1048.4,2457.568,1078.029,2457.568z M811.456,2689.102c29.629,0,53.737,24.108,53.737,53.742      c0,29.629-24.108,53.737-53.737,53.737c-29.635,0-53.742-24.108-53.742-53.737      C757.714,2713.21,781.821,2689.102,811.456,2689.102z"/>
        </g>
      </g>
      <g>
        <g>
          <path style="fill:#AD5833;" d="M1289.266,2551.085l-0.418,1.103c-26.771,70.167-95.261,93.879-167.774,118.984      c-40.315,13.962-82.001,28.392-115.926,51.542c-32.404,22.113-57.47,56.261-81.706,89.289      c-41.273,56.238-83.834,114.221-163.634,114.226c-7.538,0-15.4-0.518-23.634-1.605c-39.301-5.181-67.209-23.411-82.948-54.183      c-18.171-35.521-16.329-80.9-10.8-115.077c-34.844,79.667-42.767,155.573-17.781,213.792      c26.882,62.635,90.687,93.941,179.63,88.035c141.142-9.304,164.331-56.941,191.174-112.093      c23.996-49.285,51.191-105.151,160.525-146.669c205.721-78.129,217.75-118.605,253.469-238.771      c4.318-14.531,8.786-29.557,14.018-46.182c44.839-142.425,204.004-162.685,241.657-165.494l-44.871-114.253      C1385.203,2299.843,1329.758,2444.924,1289.266,2551.085z"/>
        </g>
      </g>
      <g>
        <g>
          <path style="fill:#D3D3D3;" d="M1078.029,2553.637c23.344,0,42.332-18.988,42.332-42.326c0-23.344-18.988-42.332-42.332-42.332      c-23.339,0-42.327,18.988-42.327,42.332C1035.702,2534.65,1054.69,2553.637,1078.029,2553.637z"/>
        </g>
      </g>
      <g>
        <g>
          <path style="fill:#D3D3D3;" d="M811.456,2785.171c23.339,0,42.326-18.988,42.326-42.326c0-23.344-18.988-42.332-42.326-42.332      c-23.344,0-42.332,18.988-42.332,42.332C769.124,2766.183,788.112,2785.171,811.456,2785.171z"/>
        </g>
      </g>
      <g>
        <g>
          <path style="fill:none;" d="M1422.647,2434.211c-52.451,82.266-43.616,197.105-114.288,251.765      c-70.671,54.659-165.634,76.744-233.545,113.735c-67.911,36.991-86.129,85.578-106.557,132.507      c-20.429,46.93-67.911,96.069-173.365,99.381c-105.454,3.313-170.248-62.442-170.248-62.442      c26.882,62.635,90.687,93.941,179.63,88.035c141.142-9.304,164.331-56.941,191.174-112.093      c23.996-49.285,51.191-105.151,160.525-146.669c205.721-78.129,217.75-118.605,253.469-238.771      c4.318-14.531,8.786-29.557,14.018-46.182c44.839-142.425,204.004-162.685,241.657-165.494l-9.508-24.207      C1582.164,2324.182,1473.797,2353.986,1422.647,2434.211z"/>
        </g>
      </g>
      <g>
        <g>
          <path style="fill:none;" d="M2422.187,2074.15c9.125-6.762,18.369-13.729,27.718-20.893      c-14.115,10.729-28.637,21.576-43.614,32.553C2411.573,2081.97,2416.869,2078.092,2422.187,2074.15z"/>
        </g>
      </g>
      <g>
        <g>
          <path style="fill:none;" d="M1814.731,2319.372c0,0,107.396-39.752,198.679-79.505      c488.806-248.82,684.623-451.999,914.303-787.685s377.647-762.655,377.647-762.655L1556.534,2040.291l122.035,310.738      c0.001,0.003,0.003,0.004,0.004,0.007l99.597,238.487L1814.731,2319.372z M1633.555,2016.812      c0,0,1031.351-753.085,1424.457-1102.022c0,0-374.179,932.507-1199.193,1214.654l-103.798,150.176L1633.555,2016.812z"/>
        </g>
      </g>
      <g>
        <g>
          <path style="fill:none;" d="M1527.842,1998.441l-0.369-0.941c-0.281,0.21-0.559,0.418-0.84,0.627      C1527.012,1998.226,1527.413,1998.329,1527.842,1998.441z"/>
        </g>
      </g>
      <g>
        <g>
          <path style="fill:none;" d="M1254.436,2407.71c-35.336,85.394-84.657,128.54-84.657,128.54      c-2.76-47.585-27.704-85.307-91.75-78.681c-64.046,6.625-83.184,70.736-42.327,119.089      c40.857,48.353,119.721,38.096,119.721,38.096s-35.887,15.459-112.632,48.034c-63.254,26.848-94.144,85.608-126.74,140.008      c24.25-33.027,49.469-66.853,82.667-89.508c35.184-24.008,77.599-38.694,118.622-52.896      c69.928-24.208,135.972-47.073,160.843-112.271l0.423-1.103c41.293-108.268,97.827-256.16,337.45-323.954l-13.221-33.666      c-11.65,1.104-47.844,5.849-111.36,25.438C1412.709,2239.131,1289.771,2322.316,1254.436,2407.71z M1078.03,2493.564      c-28.254,8.281-34.168,42.685-34.168,42.685s-7.143-5.142-8.16-6.798c-1.017-1.656-4.782-8.282-5.333-11.319      c-0.553-3.036,0.276-12.423,0.829-15.184c0.552-2.76,4.417-12.698,5.521-16.287c1.103-3.589,12.973-12.975,13.277-14.355      c0.304-1.38,22.609-8.006,25.923-8.833c3.312-0.829,14.906-1.933,30.09,8.833c15.184,10.766,19.325,35.611,19.325,35.611      S1106.285,2485.282,1078.03,2493.564z"/>
        </g>
      </g>
      <g>
        <g>
          <path style="fill:none;" d="M667.882,2872.817c14.486,22.607,37.875,36.293,69.786,40.498      c21.81,2.869,40.828,1.496,57.798-3.096c-86.39-4.325-66.827-119.342-66.827-119.342s32.574,67.358,110.974,39.752      c78.401-27.605,71.247-106.92,25.58-160.113c-15.642-18.22-70.301-12.699-70.301-12.699      c236.537-228.238,712.608-530.94,769.337-566.726l-17.292-44.031c-71.925,49.102-671.336,459.36-781.583,569.348      C666.798,2714.732,665.709,2836.395,667.882,2872.817z M779.432,2705.024c7.177-6.349,23.188-16.563,53.279-6.349      c30.091,10.215,21.071,51.715,21.071,51.715s-21.899-27.238-48.032-18.772c-26.134,8.465-35.336,37.543-35.336,37.543      s-5.062-24.109-5.062-26.318c0-2.208,0-11.594,0.276-14.078C765.906,2726.281,772.255,2711.373,779.432,2705.024z"/>
        </g>
      </g>
      <g>
        <g>
          <path style="fill:none;" d="M2421.24,2189.809c237.041-182.566,469.667-406.357,583.034-592.604      c79.948-131.343,141.539-303.551,170.906-393.676c-24.23,45.222-51.767,93.066-82.008,139.976      c-52.397,85.189-107.813,166.324-166.227,243.002c-148.53,194.963-316.259,362.257-498.519,497.226      c-288.853,213.9-524.203,278.217-557.682,286.602c-1.006,10.402-2.287,21.255-3.769,32.378l18.344,156.63      C1885.319,2559.344,2184.198,2372.375,2421.24,2189.809z"/>
        </g>
      </g>
      <g style="opacity:0.25;">
        <g>
          <path style="fill:#021168;" d="M770.415,2769.161c0,0,9.201-29.078,35.336-37.543c26.133-8.466,48.032,18.772,48.032,18.772      s9.02-41.5-21.071-51.715c-30.09-10.214-46.101,0-53.279,6.349c-7.177,6.349-13.526,21.257-13.803,23.741      c-0.276,2.484-0.276,11.87-0.276,14.078C765.353,2745.052,770.415,2769.161,770.415,2769.161z"/>
        </g>
      </g>
      <g style="opacity:0.25;">
        <g>
          <path style="fill:#021168;" d="M1101.759,2464.706c-15.184-10.767-26.778-9.662-30.09-8.834      c-3.314,0.827-25.619,7.453-25.923,8.834c-0.304,1.38-12.174,10.766-13.277,14.355c-1.104,3.589-4.97,13.527-5.521,16.287      c-0.553,2.761-1.382,12.147-0.829,15.184c0.552,3.036,4.317,9.662,5.333,11.318c1.017,1.656,8.159,6.798,8.159,6.798      s5.914-34.404,34.168-42.685c28.254-8.282,47.303,14.355,47.303,14.355S1116.942,2475.472,1101.759,2464.706z"/>
        </g>
      </g>
      <g style="opacity:0.25;">
        <g>
          <path style="fill:#021168;" d="M811.047,3055.404c106.426-3.312,154.345-52.451,174.963-99.381      c20.616-46.929,39.003-95.516,107.539-132.507c68.537-36.992,164.375-59.076,235.698-113.735      c71.323-54.66,62.406-169.5,115.341-251.765c51.622-80.225,160.987-110.029,235.11-110.434l-35.689-90.046      c-237.21,66.111-293.166,211.192-334.031,317.354l-0.422,1.103c-27.018,70.167-96.139,93.879-169.32,118.985      c-40.687,13.962-82.757,28.392-116.994,51.542c-32.702,22.113-58,56.261-82.459,89.288      c-41.654,56.239-84.607,114.221-165.142,114.227c-7.608,0-15.542-0.518-23.852-1.605c-39.663-5.181-67.828-23.411-83.713-54.183      c-18.339-35.521-16.479-80.9-10.9-115.077c-35.165,79.667-43.161,155.573-17.945,213.792      C639.231,2992.961,704.621,3058.716,811.047,3055.404z"/>
        </g>
      </g>
      <g style="opacity:0.25;">
        <g>
          <path style="fill:#021168;" d="M844.767,2670.517c45.667,53.193,52.82,132.508-25.58,160.113      c-78.4,27.606-110.974-39.752-110.974-39.752s-19.563,115.016,66.827,119.342c52.015-14.073,84.696-58.532,118.778-104.969      c0.599-0.816,1.208-1.637,1.808-2.455c32.596-54.401,63.486-113.16,126.74-140.008c76.744-32.575,112.632-48.034,112.632-48.034      s-78.864,10.257-119.721-38.096c-40.857-48.353-21.719-112.464,42.326-119.089c64.046-6.626,88.989,31.096,91.75,78.681      c0,0,49.322-43.146,84.657-128.54c35.336-85.393,158.273-168.579,237.041-192.873c63.516-19.589,99.71-24.333,111.36-25.438      l-38.607-98.307c-56.729,35.786-532.8,338.488-769.337,566.726C774.466,2657.818,829.125,2652.297,844.767,2670.517z"/>
        </g>
      </g>
      <g style="opacity:0.4;">
        <g>
          <path style="fill:#FFFFFF;" d="M1890.381,2151.001c825.014-282.147,1200.759-1200.876,1200.759-1200.876      c-333.313,295.863-1126.604,872.374-1360.217,1040.907c-38.208,27.564-51.487,78.315-31.721,121.081l35.72,77.285      L1890.381,2151.001z"/>
        </g>
      </g>
      <g style="opacity:0.4;">
        <g>
          <path style="fill:#FFFFFF;" d="M808.286,2531.374c-61.008,56.305-109.638,117.968-143.503,178.965      c-0.024,0.057-0.015,0.118-0.04,0.175c-0.93,2.602-33.529,100.203,1.226,159.45c0.588,1.001,1.293,1.885,1.914,2.853      c-2.173-36.421-1.084-158.084,97.472-256.407c110.247-109.988,709.658-520.246,781.583-569.348l-19.095-48.621      c-0.429-0.111-0.83-0.214-1.209-0.313C1121.548,2300.763,820.6,2522.312,808.286,2531.374z"/>
        </g>
      </g>
      <g style="opacity:0.4;">
        <g>
          <path style="fill:#FFFFFF;" d="M3176.105,1200.683c-26.704,48.824-54.383,96.406-82.933,142.821      c30.24-46.91,57.778-94.754,82.008-139.976C3175.495,1202.566,3175.798,1201.627,3176.105,1200.683z"/>
        </g>
      </g>
      <g style="opacity:0.4;">
        <g>
          <path style="fill:#FFFFFF;" d="M1997.302,1630.618c351.376-265.024,724.437-549.591,1035.143-793.848      C2748.19,1054.787,2321.825,1381.787,1997.302,1630.618z"/>
        </g>
      </g>
      <g style="opacity:0.4;">
        <g>
          <path style="fill:#FFFFFF;" d="M3324.922,865.017l-130.574,276.985C3239.606,1055.915,3283.364,963.732,3324.922,865.017z"/>
        </g>
      </g>
      <g style="opacity:0.4;">
        <g>
          <path style="fill:#FFFFFF;" d="M3324.922,865.017l-130.574,276.985C3239.606,1055.915,3283.364,963.732,3324.922,865.017z"/>
        </g>
      </g>
      <g style="opacity:0.4;">
        <g>
          <path style="fill:#FFFFFF;" d="M3198.24,1159.416c-7.318,13.832-14.671,27.62-22.135,41.268      c-0.306,0.944-0.61,1.883-0.925,2.845C3183.238,1188.491,3190.936,1173.74,3198.24,1159.416z"/>
        </g>
      </g>
      <g style="opacity:0.4;">
        <g>
          <path style="fill:#FFFFFF;" d="M3198.24,1159.416c-7.318,13.832-14.671,27.62-22.135,41.268      c-0.306,0.944-0.61,1.883-0.925,2.845C3183.238,1188.491,3190.936,1173.74,3198.24,1159.416z"/>
        </g>
      </g>
      <g>
        <g>
          <path style="fill:#AAACB5;" d="M1776.338,1956.657l419.082,51.219l103.526-40.177l163.564-136.925l-519.126-22.085      l176.04-128.091l508.86,19.876l35.058-60.156l-459.36-21.558C2203.982,1618.762,1792.594,1923.53,1776.338,1956.657z"/>
        </g>
      </g>
      <g>
        <g>
          <path style="fill:#AAACB5;" d="M2745.055,1534.841c-14.493-7.213-282.545-22.085-282.545-22.085l320.089-52.269      L2745.055,1534.841z"/>
        </g>
      </g>
      <g>
        <g>
          <polygon style="fill:#AAACB5;" points="2653.404,1285.285 2719.658,1285.285 2676.593,1265.408     "/>
        </g>
      </g>
      <g>
        <g>
          <polygon style="fill:#AD5833;" points="1152.11,2344.769 1281.305,2385.625 1315.537,2337.039 1210.635,2308.329       1266.055,2279.619 1356.393,2302.808 1372.957,2289.557 1280.201,2257.535     "/>
        </g>
      </g>
      <g>
        <g>
          <path style="fill:#FFFFFF;" d="M2571.415,2085.81l-132.763-9.709l156.855-128.778l43.682-40.146l163.378-14.774l78.032-101.589      h-125.708l53.463-59.163h128.192C2936.547,1731.65,2691.321,2005.369,2571.415,2085.81z"/>
        </g>
      </g>
      <g style="opacity:0.2;">
        <g/>
      </g>
      <g style="opacity:0.4;">
        <g>
          <g>
            <path style="fill:#FFFFFF;" d="M1774.362,2495.851c0.351-3.549,0.8-7.973,1.413-12.979l-45.361-108.617       c-0.002-0.003-0.003-0.004-0.004-0.007l-110.504-281.377c-18.373-46.784-3.245-100.052,37.001-130.161       c551.932-412.93,1265.34-952.956,1714.383-1316.789c-3.012-37.494-7.7-63.462-10.368-76.015       c-462.942,378.035-1249.888,972.805-1828.974,1405.515l141.62,360.608c0.001,0.003,0.003,0.004,0.004,0.007l117.039,280.251       C1779.811,2587.33,1769.455,2545.421,1774.362,2495.851z"/>
          </g>
        </g>
        <g>
          <g>
            <path style="fill:#FFFFFF;" d="M1790.612,2616.287c3.045,8.165,6.124,15.358,8.909,21.332L1790.612,2616.287z"/>
          </g>
        </g>
      </g>
      <g>
        <g>
          <path style="fill:#021168;" d="M783.307,3078.607c-86.807,0-149.448-35.479-177.69-101.284      c-51.997-121.152,25.664-310.879,188.857-461.382c0.41-0.376,0.835-0.728,1.284-1.06      c17.646-12.983,1774.131-1305.823,2564.15-1951.804c3.94-3.215,9.229-4.214,14.053-2.681c4.834,1.541,8.56,5.422,9.907,10.313      c2.964,10.776,70.737,268.369-89.189,660.041c-93.511,229.006-246.201,456.243-453.833,675.396      c-258.945,273.311-604.668,534.858-1027.568,777.383c-3.73,2.148-8.208,2.578-12.28,1.191c-4.077-1.382-7.363-4.453-9.023-8.423      l-128.398-307.441c-38.936,3.35-180.493,24.189-220.366,150.835c-5.186,16.475-9.629,31.421-13.921,45.874      c-36.87,124.048-50.664,170.464-265.962,252.222c-101.665,38.604-125.859,88.311-149.258,136.377      c-28.438,58.418-55.298,113.594-208.438,123.691C798.028,3078.358,790.577,3078.607,783.307,3078.607z M814.205,2538.553      c-78.389,72.432-136.719,153.447-168.721,234.341c-29.375,74.243-33.74,142.642-12.3,192.598      c25.576,59.595,84.482,88.042,170.474,82.432c135.757-8.955,156.797-52.173,183.433-106.895      c24.751-50.84,52.803-108.462,165.581-151.289c201.426-76.489,212.188-112.71,247.856-232.72      c4.331-14.57,8.809-29.634,14.067-46.333c52.7-167.402,256.431-172.417,258.481-172.451c0.078,0,0.156,0,0.229,0      c6.045,0,11.509,3.628,13.843,9.219l125.947,301.567c938.589-541.582,1308.096-1074.512,1452.739-1426.997      c130.103-317.058,106.313-548.433,93.892-620.073C2566.227,1248.541,856.744,2507.249,814.205,2538.553z"/>
        </g>
      </g>
      <g>
        <g>
          <path style="fill:#021168;" d="M1673.312,2368.24c-5.991,0-11.646-3.613-13.965-9.521l-143.223-364.697      c-3.032-7.712,0.767-16.416,8.477-19.446c7.72-3.032,16.416,0.771,19.443,8.479l143.223,364.697      c3.032,7.71-0.767,16.416-8.477,19.443C1676.988,2367.904,1675.133,2368.24,1673.312,2368.24z"/>
        </g>
      </g>
      <g>
        <g>
          <path style="fill:#021168;" d="M760.367,2935.565c-8.091,0-16.543-0.557-25.405-1.724      c-42.529-5.605-72.822-25.522-90.034-59.204c-35.869-70.19,0.933-172.69,1.397-173.55c3.926-7.285,13.018-10.024,20.322-6.074      c6.851,3.696,9.668,11.958,6.714,18.989c-6.973,18.779-28.218,103.198,1.035,151.953c12.998,21.66,34.092,34.136,64.482,38.14      c83.301,10.977,122.466-42.471,167.876-104.346c25.264-34.429,51.396-70.034,86.724-94.146      c36.206-24.702,79.219-39.59,120.815-53.994c67.822-23.481,131.88-45.659,155.205-106.802l0.425-1.118      c42.363-111.05,100.376-263.145,349.775-331.357c7.988-2.183,16.24,2.52,18.423,10.513c2.188,7.988-2.52,16.24-10.513,18.423      c-234.707,64.199-289.585,208.066-329.653,313.115l-0.43,1.118c-28.311,74.219-102.08,99.761-173.418,124.458      c-39.736,13.76-80.82,27.983-113.721,50.43c-31.089,21.216-55.674,54.712-79.448,87.109      C888.277,2875.628,844.288,2935.565,760.367,2935.565z"/>
        </g>
      </g>
      <g>
        <g>
          <path style="fill:#021168;" d="M811.456,2803.377c-33.379,0-60.537-27.153-60.537-60.532s27.158-60.537,60.537-60.537      s60.532,27.158,60.532,60.537S844.835,2803.377,811.456,2803.377z M811.456,2707.308c-19.595,0-35.537,15.942-35.537,35.537      s15.942,35.532,35.537,35.532c19.595,0,35.532-15.938,35.532-35.532S831.051,2707.308,811.456,2707.308z"/>
        </g>
      </g>
      <g>
        <g>
          <path style="fill:#021168;" d="M1078.028,2571.844c-33.379,0-60.532-27.153-60.532-60.532s27.153-60.537,60.532-60.537      s60.537,27.158,60.537,60.537S1111.407,2571.844,1078.028,2571.844z M1078.028,2475.775c-19.595,0-35.532,15.942-35.532,35.537      s15.938,35.532,35.532,35.532s35.537-15.938,35.537-35.532S1097.623,2475.775,1078.028,2475.775z"/>
        </g>
      </g>
    </g>
  </g>
</svg>