<svg xmlns="http://www.w3.org/2000/svg" xmlns:xlink="http://www.w3.org/1999/xlink" version="1.1" x="0px" y="0px" viewBox="0 0 500 500" style="enable-background:new 0 0 500 500;" xml:space="preserve">
<g id="Background">
	<rect style="display:none;" width="500" height="500"/>
</g>
<g id="Objects">
	<g>
		
		<g>
			<g>
				<g>
					<path style="fill:white;" d="M269.877,421.673c-58.652,0-91.424-12.898-105.739-20.585       c-7.494-4.024-12.149-11.798-12.149-20.287V353.81c-0.237-0.056-0.635-0.114-1.263-0.114c-2.66,0-6.173,1.016-6.209,1.026       l-0.126,0.036l-0.131,0.023c-3.894,0.695-7.864,1.048-11.8,1.048c-26.922,0-45.288-16.005-46.057-16.686       c-34.133-29.97-33.214-87.917-33.132-91.23c-0.083-3.313-1.001-61.26,33.141-91.238c0.76-0.673,19.122-16.678,46.048-16.678       c3.936,0,7.906,0.353,11.8,1.048l0.129,0.023l0.127,0.037c0.035,0.01,3.548,1.026,6.209,1.026c0.627,0,1.025-0.059,1.262-0.114       v-23.668c-0.225-1.061-0.069-2.54,0.944-4.085c6.863-10.46,47.302-15.989,116.944-15.989c69.642,0,110.08,5.529,116.943,15.989       c1.014,1.545,1.17,3.024,0.944,4.085v262.429c0,8.505-4.663,16.291-12.17,20.32       C361.28,408.782,328.512,421.673,269.877,421.673z M127.819,170.965c-9.438,0-19.122,4.472-25.903,11.963       c-19.325,21.347-22.18,45.524-22.509,64.202c0.626,35.472,12.358,52.903,22.509,64.116c6.772,7.48,16.434,11.947,25.845,11.946       c8.259,0,14.64-3.541,17.068-9.472c3.359-8.204,5.543-11.556,7.16-12.901V193.437c-1.716-1.491-3.962-5.011-7.167-12.999       C142.442,174.507,136.086,170.965,127.819,170.965z"/>
					<path style="fill:black;" d="M269.877,100.723c122.947,0,115.441,17.296,115.441,17.296v262.76       c0,7.6-4.184,14.57-10.88,18.164c-15.132,8.122-47.341,20.283-104.561,20.283c-57.245,0-89.458-12.172-104.581-20.294       c-6.683-3.589-10.86-10.545-10.86-18.131v-27.419c0-1.641-1.684-2.134-3.71-2.134c-3.058,0-6.896,1.124-6.896,1.124       c-3.93,0.702-7.728,1.01-11.37,1.01c-26.303,0-44.433-16.07-44.433-16.07c-33.939-29.8-32.307-89.399-32.307-89.399       s-1.632-59.599,32.307-89.399c0,0,18.126-16.071,44.433-16.07c3.641,0,7.442,0.308,11.37,1.01c0,0,3.837,1.124,6.896,1.124       c2.026,0,3.71-0.494,3.71-2.134v-24.426C154.436,118.018,146.93,100.723,269.877,100.723 M127.76,325.641       c8.752,0,16.352-3.711,19.333-10.992c4.585-11.199,6.564-12.254,7.147-12.254c0.135,0,0.196,0.057,0.196,0.057V192.009       c0,0-0.013,0.004-0.04,0.004c-0.313,0-2.484-0.474-7.303-12.486c-2.928-7.298-10.516-11.009-19.274-11.009       c-9.321,0-19.967,4.206-27.718,12.768c-12.968,14.325-22.563,32.949-23.142,65.802c0.578,32.853,10.174,51.476,23.142,65.802       C107.848,321.447,118.455,325.641,127.76,325.641 M269.877,95.827c-41.156,0-72.268,1.933-92.47,5.744       c-14.647,2.763-23.322,6.476-26.521,11.35c-1.49,2.271-1.564,4.295-1.346,5.626v21.068c-1.713-0.177-3.623-0.653-4.34-0.861       l-0.249-0.072l-0.261-0.047c-4.034-0.72-8.149-1.086-12.23-1.086c-27.844-0.002-46.884,16.595-47.681,17.302       c-14.666,12.878-25.194,33.129-30.428,58.55c-3.755,18.241-3.564,32.864-3.528,34.512c-0.035,1.648-0.227,16.271,3.528,34.512       c5.233,25.421,15.761,45.672,30.445,58.566c0.78,0.691,19.822,17.286,47.663,17.286c4.08,0,8.195-0.365,12.231-1.086       l0.261-0.047l0.255-0.075c0.712-0.207,2.621-0.682,4.335-0.859v24.59c0,9.392,5.149,17.991,13.439,22.443       c14.517,7.797,47.709,20.876,106.897,20.876c59.169,0,92.359-13.073,106.876-20.865c8.302-4.456,13.46-13.069,13.46-22.477       V118.548c0.218-1.331,0.144-3.355-1.346-5.626c-3.198-4.874-11.873-8.587-26.521-11.35       C342.144,97.76,311.033,95.827,269.877,95.827L269.877,95.827z M81.855,247.088c0.629-34.684,12.019-51.63,21.875-62.517       c6.325-6.987,15.33-11.158,24.089-11.158c7.231,0,12.738,2.967,14.731,7.936c2.792,6.96,5.005,10.932,6.991,13.118v105.319       c-2.111,2.254-4.25,6.345-6.978,13.008c-2.038,4.979-7.572,7.952-14.803,7.952c-8.732,0-17.715-4.165-24.03-11.142       C93.874,298.717,82.484,281.771,81.855,247.088L81.855,247.088z"/>
				</g>
				<g>
					<g>
						<path style="fill:black;" d="M161.126,118.671c0,0,0.7,0.515,2.147,1.244c1.472,0.673,3.648,1.632,6.541,2.516        c2.867,0.95,6.43,1.845,10.537,2.749c2.057,0.437,4.267,0.813,6.583,1.258c2.331,0.369,4.782,0.757,7.34,1.161        c2.563,0.366,5.247,0.664,8.015,1.019c2.769,0.354,5.653,0.559,8.605,0.859c2.951,0.314,5.998,0.484,9.108,0.699        c3.11,0.206,6.283,0.467,9.521,0.591c3.235,0.156,6.525,0.314,9.854,0.474c3.333,0.09,6.707,0.181,10.107,0.273        c3.4,0.121,6.829,0.129,10.272,0.148c3.44,0.021,6.893,0.041,10.346,0.062c3.46-0.023,6.921-0.046,10.367-0.068        c1.723-0.011,3.443-0.022,5.158-0.033c1.714-0.018,3.418-0.084,5.117-0.124c3.398-0.092,6.77-0.182,10.101-0.272        c3.329-0.163,6.619-0.324,9.854-0.482c3.238-0.12,6.41-0.407,9.521-0.603c3.111-0.205,6.155-0.396,9.107-0.707        c5.917-0.503,11.487-1.183,16.619-1.888c2.556-0.408,5.014-0.762,7.339-1.164c2.316-0.445,4.529-0.806,6.583-1.257        c4.109-0.897,7.673-1.79,10.541-2.735c2.892-0.881,5.075-1.824,6.55-2.493c1.452-0.718,2.158-1.225,2.158-1.225        s-0.683,0.537-2.109,1.32c-1.449,0.725-3.596,1.795-6.476,2.76c-2.853,1.041-6.401,2.052-10.501,3.085        c-2.05,0.518-4.257,0.951-6.571,1.473c-2.323,0.477-4.786,0.861-7.346,1.327c-5.138,0.808-10.719,1.6-16.645,2.22        c-2.958,0.369-6.007,0.621-9.124,0.887c-3.116,0.277-6.302,0.542-9.547,0.697c-3.244,0.18-6.542,0.362-9.881,0.547        c-3.343,0.112-6.727,0.225-10.138,0.339c-1.705,0.051-3.419,0.128-5.134,0.158c-1.715,0.022-3.435,0.044-5.158,0.066        c-3.447,0.043-6.906,0.087-10.367,0.13c-3.467-0.043-6.935-0.086-10.388-0.128c-3.451-0.041-6.887-0.071-10.296-0.214        c-3.409-0.114-6.79-0.227-10.132-0.339c-3.339-0.182-6.637-0.361-9.881-0.538c-3.245-0.155-6.432-0.404-9.547-0.69        c-3.116-0.276-6.167-0.506-9.125-0.878c-2.959-0.358-5.845-0.62-8.619-1.029c-2.774-0.41-5.46-0.761-8.027-1.178        c-2.56-0.464-5.021-0.862-7.346-1.325c-2.315-0.521-4.519-0.969-6.572-1.473c-4.099-1.039-7.646-2.051-10.498-3.097        c-0.713-0.259-1.388-0.504-2.023-0.735c-0.621-0.267-1.204-0.517-1.746-0.75c-1.094-0.438-1.965-0.949-2.698-1.296        C161.802,119.215,161.126,118.671,161.126,118.671z"/>
					</g>
					<g>
						<g>
							<g>
								<path style="fill:black;" d="M177.883,111.404c0,0,0.529-0.107,1.522-0.307c0.991-0.208,2.449-0.487,4.313-0.811          c3.728-0.632,9.071-1.456,15.52-2.144c6.447-0.689,13.986-1.351,22.078-1.801c4.046-0.226,8.228-0.428,12.48-0.583          c4.251-0.175,8.571-0.29,12.892-0.395c4.321-0.086,8.642-0.126,12.896-0.156c4.253-0.004,8.439-0.008,12.49-0.012          c8.102,0.029,15.662,0.216,22.141,0.397c12.958,0.398,21.578,1.023,21.578,1.023s-2.159-0.062-5.937-0.17          c-3.778-0.115-9.176-0.204-15.652-0.302c-6.477-0.1-14.034-0.102-22.13-0.098c-8.096,0.025-16.732,0.082-25.364,0.297          c-4.316,0.083-8.633,0.175-12.879,0.328c-4.247,0.133-8.426,0.313-12.467,0.519c-8.083,0.411-15.622,0.892-22.069,1.5          c-6.447,0.598-11.807,1.232-15.544,1.785c-1.867,0.283-3.337,0.497-4.334,0.675          C178.416,111.315,177.883,111.404,177.883,111.404z"/>
							</g>
						</g>
						<g>
							<g>
								<g>
									<path style="fill:balck;" d="M159.82,363.431c0,0-0.069-3.715-0.19-10.216c-0.079-6.501-0.27-15.788-0.359-26.932           c-0.081-11.144-0.262-24.146-0.299-38.076c-0.041-13.93-0.086-28.789-0.13-43.648c0.044-14.859,0.087-29.718,0.129-43.648           c0.032-13.93,0.218-26.932,0.298-38.076c0.087-11.144,0.281-20.431,0.36-26.932c0.121-6.501,0.191-10.215,0.191-10.215           s0.069,3.715,0.191,10.215c0.079,6.501,0.273,15.788,0.36,26.932c0.08,11.144,0.266,24.146,0.298,38.076           c0.041,13.93,0.085,28.789,0.129,43.648c-0.044,14.859-0.089,29.718-0.13,43.648c-0.037,13.93-0.218,26.932-0.299,38.076           c-0.089,11.144-0.28,20.431-0.359,26.932C159.889,359.716,159.82,363.431,159.82,363.431z"/>
								</g>
								<g>
									<g>
										<path style="fill:black;" d="M379.117,275.801c0,0-0.035-1.904-0.095-5.237c-0.043-3.333-0.105-8.094-0.18-13.807            c-0.044-5.714-0.095-12.379-0.15-19.521c-0.021-7.142-0.043-14.76-0.065-22.378c0.022-7.618,0.044-15.236,0.064-22.377            c0.055-7.142,0.105-13.807,0.149-19.521c0.074-5.713,0.137-10.475,0.18-13.807c0.061-3.333,0.095-5.237,0.095-5.237            s0.035,1.904,0.095,5.237c0.044,3.333,0.106,8.094,0.18,13.807c0.044,5.713,0.095,12.379,0.149,19.521            c0.021,7.142,0.042,14.76,0.064,22.377c-0.022,7.618-0.044,15.236-0.065,22.378c-0.055,7.142-0.106,13.807-0.15,19.521            c-0.074,5.713-0.136,10.474-0.18,13.807C379.152,273.897,379.117,275.801,379.117,275.801z"/>
									</g>
									<g>
										<path style="fill:black;" d="M379.117,368.729c0,0-0.035-1.092-0.095-3.004c-0.039-1.912-0.135-4.643-0.18-7.921            c-0.04-3.278-0.131-7.101-0.15-11.198c-0.021-4.097-0.043-8.467-0.065-12.837c0.022-4.37,0.044-8.74,0.064-12.837            c0.016-4.097,0.109-7.921,0.149-11.198c0.043-3.278,0.141-6.009,0.18-7.921c0.061-1.912,0.095-3.005,0.095-3.005            s0.035,1.093,0.095,3.005c0.039,1.912,0.137,4.643,0.18,7.921c0.04,3.277,0.133,7.101,0.149,11.198            c0.021,4.097,0.042,8.467,0.064,12.837c-0.022,4.37-0.044,8.74-0.065,12.837c-0.019,4.097-0.109,7.921-0.15,11.198            c-0.044,3.277-0.14,6.009-0.18,7.921C379.152,367.637,379.117,368.729,379.117,368.729z"/>
									</g>
								</g>
							</g>
							<g>
								<path style="fill:black;" d="M372.586,393.534c0,0-0.787,0.426-2.263,1.226c-1.487,0.775-3.681,1.907-6.551,3.174          c-1.426,0.655-3.045,1.284-4.787,2.023c-1.77,0.662-3.67,1.43-5.738,2.139c-2.068,0.708-4.264,1.483-6.619,2.173          c-2.337,0.753-4.834,1.4-7.437,2.089c-2.599,0.706-5.345,1.276-8.169,1.952c-2.849,0.546-5.779,1.216-8.823,1.713          c-3.042,0.514-6.164,1.071-9.378,1.475c-1.605,0.219-3.226,0.456-4.867,0.652c-1.644,0.168-3.304,0.337-4.978,0.508          c-6.696,0.691-13.641,1.107-20.701,1.384c-3.529,0.166-7.091,0.148-10.665,0.231c-3.6,0.056-7.155-0.049-10.742-0.065          c-3.582-0.074-7.18-0.295-10.754-0.435c-3.569-0.237-7.122-0.488-10.644-0.782c-7.034-0.693-13.953-1.465-20.59-2.616          c-3.33-0.502-6.575-1.176-9.753-1.81c-1.585-0.336-3.143-0.723-4.687-1.076c-0.771-0.18-1.538-0.359-2.299-0.536          c-0.756-0.2-1.507-0.399-2.254-0.597c-5.984-1.525-11.547-3.326-16.603-5.186c-5.06-1.855-9.587-3.857-13.478-5.866          c-0.965-0.517-1.899-1.017-2.801-1.499c-0.884-0.521-1.74-1.062-2.473-1.685c-1.495-1.205-2.647-2.561-3.504-3.892          c-1.743-2.669-2.292-5.163-2.523-6.814c-0.105-0.835-0.147-1.479-0.144-1.913c-0.006-0.434-0.009-0.657-0.009-0.657          s0.012,0.223,0.036,0.656c0.014,0.432,0.083,1.073,0.221,1.898c0.289,1.635,0.962,4.06,2.734,6.618          c0.877,1.274,2.04,2.559,3.523,3.68c0.725,0.579,1.553,1.066,2.437,1.554c0.91,0.452,1.852,0.919,2.826,1.402          c3.926,1.869,8.479,3.714,13.527,5.482c5.054,1.752,10.609,3.436,16.579,4.838c0.744,0.182,1.494,0.366,2.248,0.551          c0.76,0.162,1.524,0.325,2.294,0.489c1.54,0.321,3.092,0.676,4.672,0.98c3.173,0.549,6.388,1.242,9.703,1.707          c6.599,1.103,13.481,1.827,20.477,2.472c3.502,0.271,7.039,0.497,10.586,0.711c3.552,0.118,7.104,0.309,10.681,0.37          c3.572,0.039,7.176,0.166,10.707,0.131c3.556-0.061,7.102-0.021,10.613-0.164c7.025-0.231,13.937-0.603,20.599-1.249          c1.666-0.16,3.318-0.318,4.954-0.474c1.632-0.196,3.248-0.391,4.846-0.583c3.204-0.342,6.316-0.838,9.35-1.292          c3.038-0.437,5.959-1.049,8.805-1.539c2.818-0.619,5.563-1.135,8.159-1.789c1.3-0.32,2.573-0.634,3.817-0.941          c1.246-0.302,2.441-0.674,3.622-0.983c2.364-0.615,4.57-1.318,6.65-1.96c2.08-0.643,3.992-1.348,5.777-1.954          c1.756-0.682,3.39-1.26,4.83-1.869c2.895-1.188,5.135-2.197,6.651-2.919C371.782,393.928,372.586,393.534,372.586,393.534z"/>
							</g>
						</g>
						<g>
							<g>
								<g>
									<path style="fill:black;" d="M154.925,153.915c0,0,0.035,0.595,0.095,1.637c0.04,1.042,0.135,2.53,0.18,4.315           c0.04,1.786,0.131,3.869,0.15,6.101c0.021,2.232,0.043,4.613,0.065,6.994c-0.022,2.381-0.044,4.762-0.064,6.994           c-0.016,2.232-0.109,4.315-0.149,6.101c-0.044,1.786-0.141,3.274-0.18,4.315c-0.061,1.042-0.095,1.637-0.095,1.637           s-0.035-0.595-0.095-1.637c-0.04-1.042-0.137-2.53-0.18-4.315c-0.04-1.786-0.133-3.869-0.149-6.101           c-0.021-2.232-0.042-4.613-0.064-6.994c0.022-2.381,0.044-4.762,0.065-6.994c0.019-2.232,0.109-4.315,0.15-6.101           c0.044-1.786,0.14-3.274,0.18-4.315C154.891,154.51,154.925,153.915,154.925,153.915z"/>
								</g>
								<g>
									<path style="fill:black;" d="M154.925,302.071c0,0,0.035,0.719,0.095,1.977c0.04,1.258,0.135,3.056,0.18,5.213           c0.04,2.157,0.131,4.673,0.15,7.369c0.021,2.696,0.043,5.572,0.065,8.448c-0.022,2.876-0.044,5.752-0.064,8.448           c-0.016,2.696-0.109,5.212-0.149,7.369c-0.044,2.157-0.141,3.954-0.18,5.212c-0.061,1.258-0.095,1.977-0.095,1.977           s-0.035-0.719-0.095-1.977c-0.04-1.258-0.137-3.056-0.18-5.212c-0.04-2.157-0.133-4.673-0.149-7.369           c-0.021-2.696-0.042-5.572-0.064-8.448c0.022-2.876,0.044-5.752,0.065-8.448c0.019-2.696,0.109-5.212,0.15-7.369           c0.044-2.157,0.14-3.954,0.18-5.213C154.891,302.79,154.925,302.071,154.925,302.071z"/>
								</g>
							</g>
							<g>
								<path style="fill:black;" d="M60.613,248.997c0,0-0.021-0.587-0.061-1.689c-0.025-1.102-0.062-2.72-0.017-4.779          c0.088-4.114,0.327-10.007,1.237-17.023c0.458-3.506,1.072-7.292,1.878-11.269c0.812-3.965,1.817-8.151,3.149-12.375          c2.611-8.468,6.363-17.262,11.486-25.282c2.585-3.989,5.538-7.755,8.83-11.096c0.783-0.874,1.667-1.642,2.513-2.439          l1.274-1.184c0.434-0.386,0.919-0.762,1.372-1.105c1.838-1.398,3.73-2.647,5.63-3.813c3.809-2.319,7.726-4.145,11.534-5.602          c3.816-1.45,7.555-2.424,11.028-3.171c0.877-0.145,1.735-0.286,2.575-0.424c0.839-0.139,1.655-0.29,2.466-0.334          c0.806-0.07,1.591-0.138,2.355-0.204c0.381-0.031,0.757-0.062,1.128-0.092c0.372-0.005,0.738-0.01,1.099-0.016          c1.441-0.007,2.789-0.068,4.03-0.027c1.247,0.046,2.385,0.12,3.413,0.215c2.055,0.183,3.654,0.455,4.739,0.646          c1.082,0.209,1.66,0.32,1.66,0.32s-0.583-0.075-1.675-0.215c-1.093-0.13-2.702-0.272-4.749-0.371          c-1.023-0.047-2.16-0.067-3.391-0.055c-1.237,0.017-2.566,0.141-3.987,0.214c-2.84,0.201-6.012,0.716-9.433,1.42          c-3.394,0.834-7.033,1.894-10.732,3.422c-3.692,1.536-7.457,3.453-11.172,5.722c-1.843,1.156-3.681,2.395-5.44,3.759          c-0.446,0.346-0.859,0.67-1.274,1.045l-1.227,1.163c-0.815,0.783-1.667,1.535-2.42,2.394          c-3.173,3.278-6.01,6.977-8.505,10.892c-5.076,7.784-8.856,16.396-11.51,24.73c-1.322,4.178-2.46,8.243-3.376,12.167          c-0.911,3.915-1.627,7.653-2.181,11.122c-1.079,6.942-1.699,12.782-1.945,16.882          C60.634,246.645,60.613,248.997,60.613,248.997z"/>
							</g>
						</g>
					</g>
				</g>
			</g>
			<g>
				
				<g>
					<g>
						
							<text transform="matrix(1 0 0 1 179.2915 332.3223)" style="fill:black; font-family:'IntroScriptR-H2Base'; font-size:60px;">Rutuja"</text>
						
							<text transform="matrix(1 0 0 1 250.3638 282.9756)" style="fill:black; font-family:'IntroScriptR-H2Base'; font-size:45px;">wishes</text>
						
							<text transform="matrix(1 0 0 1 184.7832 246.1431)" style="fill:black; font-family:'IntroScriptR-H2Base'; font-size:51.7961px;">"Best</text>
					</g>
					<path id="SVGID_x5F_1_x5F_" style="fill:none;" d="M186.141,248.173c0-43.71,38.587-79.143,86.186-79.143       s86.186,35.434,86.186,79.143"/>
					<text>					<textPath xlink:href="#SVGID_x5F_1_x5F_" startOffset="1.0475%">
					</textPath>
</text>
				</g>
			</g>
		</g>
	</g>
</g>


</svg>