<svg xmlns="http://www.w3.org/2000/svg" width="74.021088mm" height="49.510452mm" viewBox="0 0 74.021088 49.510452" background-color="white">
  <g transform="translate(-187.274589 -53.665391) scale(.25937)">
    <g fill-rule="evenodd" transform="translate(1010.3632 -392.0895) scale(.75588)">
      <g transform="translate(-392.88 765.27)"/>
    </g>
    <path fill="#6a4b18" fill-rule="evenodd" d="M805.65759 350.54967c.0433.0421.62723.67061.62723.67061s4.98425.15748 13.89722-1.66106c7.20781-1.47063 17.3259-4.63997 26.79362-7.03423 5.70064-1.44163 12.5033-2.44002 18.09629-4.14751 5.55041-1.69446 9.89359-4.0971 14.65449-6.00252 5.91543-2.36746 14.61298-4.50082 22.2232-7.53152 21.94546-8.73953 44.92087-19.18785 44.92087-19.18785l-.55507-8.33419v-5.00177l-1.66723-5.00175 1.66723-6.11189v-13.33595l1.11225-4.44463 1.11004-4.44669-.55507-6.66695-1.11215-5.55683 2.22441-6.11394-.55719-9.44639-140.96115 47.17416z"/>
    <path fill="#f0e4d0" fill-rule="evenodd" d="M946.30255 270.44121c-.96171.43669-23.99291 9.17647-45.46369 17.72695-7.61022 3.03069-16.30767 5.16406-22.22309 7.53152-4.76101 1.90542-9.10408 4.30806-14.6545 6.00252-5.59309 1.70749-12.39564 2.70587-18.09628 4.1475-9.46773 2.39426-19.58581 5.56361-26.79363 7.03423-8.03545 1.6395-11.76207 1.5196-12.4528 1.47948l-.11969 4.5313c1.07327-.19317 45.07035-8.14465 72.1169-18.96912 22.97361-9.19447 67.86416-25.62988 67.86416-25.62988z"/>
    <path fill="#33240b" fill-rule="evenodd" d="M 807.577 278.369 L 807.397 278.429 L 780.168 226.195 C 780.168 226.195 777.254 250.799 776.792 263.165 C 776.34 275.284 777.391 299.544 777.391 299.544 C 777.391 299.544 775.014 339.731 779.331 347.051 C 787.659 361.176 805.526 389.474 806.027 389.962 L 807.577 278.369 Z"/>
    <path fill="#f0e4d0" fill-rule="evenodd" d="m780.2956 226.76245 167.34931 2.56236s.70382.43487.87096.78926c.1665.35325.0549 1.17032.0549 1.17032l-141.03025 47.22055s-11.74696-13.44289-19.59606-28.3054c-3.83754-7.26673-7.64836-23.43709-7.64836-23.43709z"/>
    <path fill="#f0e4d0" fill-rule="evenodd" d="M 946.91 305.192 C 945.942 305.629 921.776 317.122 900.174 325.673 C 892.518 328.704 883.768 330.837 877.816 333.204 C 873.026 335.11 868.657 337.513 863.073 339.207 C 857.446 340.914 868.557 337.752 862.771 338.977 C 853.075 341.03 822.822 348.008 815.921 349.394 C 806.877 351.21 807.118 351.391 806.423 351.351 L 806.555 356.723 C 807.635 356.53 851.004 350.642 878.214 339.817 C 901.328 330.623 947.914 310.248 947.914 310.248 L 946.91 305.192 Z"/>
  </g>
  <path xmlns="http://www.w3.org/2000/svg" fill="#6a4b18" fill-rule="evenodd" d="M 21.646 47.18 C 21.657 47.187 21.808 47.547 21.808 47.547 C 21.808 47.547 23.104 47.576 25.422 47.257 C 27.296 46.998 29.927 46.442 32.389 46.022 C 33.871 45.768 35.479 44.877 36.935 44.576 C 38.377 44.278 38.671 43.814 39.872 43.362 C 44.984 41.439 45.942 41.376 47.874 40.69 C 51.882 39.267 58.774 35.534 58.774 35.534 L 58.853 33.138 L 58.506 32.119 L 58.795 31.337 L 58.651 30.164 L 58.362 29.188 L 58.941 28.113 L 58.537 26.659 C 57.61 26.952 41.33 35.897 21.842 38.369 L 21.646 47.18 Z" style=""/>
  
  <!-- Scattered Cake Crumbs - randomly placed across different elevations -->
  <!-- Left area crumbs -->
  <path d="M15 46.8c0.7 0.4 1.5 0.1 1.3-0.7s-1.2-0.9-1.8-0.4-0.4 0.9 0.5 1.1z" fill="#6a4b18" />
  <path d="M19.2 49.4c0.5 0.3 1.1-0.1 1-0.8s-0.9-0.6-1.3-0.1-0.3 0.7 0.3 0.9z" fill="#8b5e3b" />
  <circle cx="12.8" cy="48.3" r="0.9" fill="#8b5e3b" />
  <circle cx="17.2" cy="47.2" r="0.7" fill="#6a4b18" />
  <circle cx="14.7" cy="49.1" r="0.45" fill="#6a4b18" />
  <circle cx="16.3" cy="46.5" r="0.4" fill="#8b5e3b" />
  <circle cx="11.5" cy="47.8" r="0.25" fill="#6a4b18" />
  
  <!-- Middle-left area crumbs -->
  <path d="M24.5 47.3c0.7 0.4 1.5 0.1 1.3-0.7s-1.2-0.9-1.8-0.4-0.4 0.9 0.5 1.1z" fill="#6a4b18" />
  <path d="M27.8 48.7c0.5 0.3 1.1-0.1 1-0.8s-0.9-0.6-1.3-0.1-0.3 0.7 0.3 0.9z" fill="#8b5e3b" />
  <circle cx="22.5" cy="49.6" r="0.9" fill="#8b5e3b" />
  <circle cx="26.5" cy="46.9" r="0.7" fill="#6a4b18" />
  <ellipse cx="23.5" cy="47.2" rx="0.8" ry="0.6" fill="#8b5e3b" />
  <circle cx="21.3" cy="46.8" r="0.45" fill="#6a4b18" />
  <circle cx="29.4" cy="49.3" r="0.4" fill="#8b5e3b" />
  <circle cx="30.7" cy="47.5" r="0.5" fill="#6a4b18" />
  <circle cx="20.5" cy="48.5" r="0.25" fill="#6a4b18" />
  <circle cx="25.6" cy="45.8" r="0.2" fill="#8b5e3b" />
  <circle cx="28.3" cy="47.2" r="0.3" fill="#6a4b18" />
  
  <!-- Center area crumbs -->
  <path d="M33.2 46.4c0.4 0.3 0.9 0 0.8-0.6s-0.7-0.7-1-0.2-0.2 0.6 0.2 0.8z" fill="#6a4b18" />
  <path d="M37.5 48.2c0.6 0.3 1.2-0.2 0.9-0.9s-1-0.6-1.4 0-0.2 0.8 0.5 0.9z" fill="#8b5e3b" />
  <ellipse cx="31.5" cy="49.7" rx="0.8" ry="0.6" fill="#8b5e3b" />
  <circle cx="35.8" cy="47.3" r="0.65" fill="#6a4b18" />
  <circle cx="34.5" cy="45.8" r="0.35" fill="#8b5e3b" />
  <circle cx="38.2" cy="46.3" r="0.45" fill="#6a4b18" />
  <circle cx="32.4" cy="47.5" r="0.2" fill="#8b5e3b" />
  <circle cx="36.7" cy="49.5" r="0.3" fill="#6a4b18" />
  <circle cx="39.8" cy="48.7" r="0.55" fill="#8b5e3b" />
  
  <!-- Middle-right area crumbs -->
  <path d="M42.3 46.1c0.3 0.3 0.8 0 0.7-0.5s-0.6-0.5-0.9-0.1-0.1 0.5 0.2 0.6z" fill="#6a4b18" />
  <path d="M44.6 49.4c0.5 0.3 1.1-0.1 1-0.7s-0.9-0.5-1.2-0.1-0.3 0.6 0.2 0.8z" fill="#8b5e3b" />
  <path d="M48.7 47.8c0.4 0.2 0.9-0.1 0.8-0.6s-0.7-0.6-1-0.1-0.2 0.5 0.2 0.7z" fill="#6a4b18" />
  <ellipse cx="41.4" cy="47.5" rx="0.7" ry="0.5" fill="#8b5e3b" />
  <circle cx="43.7" cy="48.1" r="0.65" fill="#6a4b18" />
  <circle cx="47.3" cy="49.6" r="0.5" fill="#8b5e3b" />
  <circle cx="46.1" cy="46.4" r="0.45" fill="#6a4b18" />
  <circle cx="42.9" cy="45.8" r="0.4" fill="#8b5e3b" />
  <circle cx="41.3" cy="46.5" r="0.25" fill="#8b5e3b" />
  <circle cx="45.2" cy="47.6" r="0.3" fill="#6a4b18" />
  <circle cx="48.9" cy="46.3" r="0.2" fill="#8b5e3b" />
  
  <!-- Right area crumbs -->
  <path d="M53.5 48.6c0.5 0.2 1-0.2 0.8-0.8s-0.9-0.5-1.2 0-0.1 0.7 0.4 0.8z" fill="#8b5e3b" />
  <circle cx="50.7" cy="47.2" r="0.45" fill="#6a4b18" />
  <circle cx="52.4" cy="46.7" r="0.5" fill="#8b5e3b" />
  <circle cx="51.2" cy="49.4" r="0.25" fill="#6a4b18" />
  <circle cx="54.3" cy="47.3" r="0.3" fill="#8b5e3b" />
  <circle cx="56.2" cy="48.5" r="0.45" fill="#6a4b18" />
  <circle cx="55.1" cy="46.9" r="0.35" fill="#8b5e3b" />
  <circle cx="59.4" cy="47.5" r="0.25" fill="#6a4b18" />
  <circle cx="58.2" cy="49.2" r="0.3" fill="#8b5e3b" />
  <circle cx="61.3" cy="48.7" r="0.25" fill="#6a4b18" />
</svg>
