<svg xmlns:inkscape="http://www.inkscape.org/namespaces/inkscape" xmlns:sodipodi="http://sodipodi.sourceforge.net/DTD/sodipodi-0.dtd" xmlns="http://www.w3.org/2000/svg" xmlns:svg="http://www.w3.org/2000/svg" version="1.1" id="svg2" width="100%" height="100%" viewBox="0 0 5333.3335 5333.3335" sodipodi:docname="28952457_5600_10_08.eps">
  <defs id="defs6"/>
  <sodipodi:namedview id="namedview4" pagecolor="#ffffff" bordercolor="#000000" borderopacity="0.25" inkscape:showpageshadow="2" inkscape:pageopacity="0.0" inkscape:pagecheckerboard="0" inkscape:deskcolor="#d1d1d1"/>
  <g id="g8" inkscape:groupmode="layer" inkscape:label="ink_ext_XXXXXX" transform="matrix(1.3333333,0,0,-1.3333333,0,5333.3333)">
    <g id="g10" transform="scale(0.1)">
      <path d="M 0,0 H 40000 V 40000 H 0 Z" style="fill:#c5c5ff;fill-opacity:0;fill-rule:nonzero;stroke:none" id="path12"/>
      <path d="m 20590.4,3850 c -5839.1,0 -10572.7,676.7 -10572.7,1511.4 0,315.1 674.5,607.7 1828.5,849.9 616.5,-783.7 1484,-1224.9 2288.3,-1225 391.5,0 767.9,104.5 1093.4,325 v 0 c 1.1,0.7 2.2,1.5 3.3,2.2 0.4,0.3 0.7,0.5 1.1,0.8 0.7,0.5 1.6,1.1 2.3,1.6 0.4,0.2 0.8,0.5 1.2,0.8 0.9,0.6 1.5,1 2.3,1.6 0.4,0.2 0.8,0.5 1.1,0.7 0.8,0.6 1.7,1.2 2.5,1.7 0.3,0.2 0.6,0.4 0.9,0.6 1,0.8 2.1,1.5 3.1,2.2 0.1,0.1 0.2,0.1 0.2,0.2 2.4,1.6 4.7,3.2 7.1,4.9 0.1,0 0.2,0.2 0.4,0.2 1,0.8 2,1.4 3,2.2 0.2,0.1 0.4,0.3 0.6,0.4 1,0.7 2,1.4 2.9,2.1 0.2,0.1 0.4,0.2 0.5,0.3 453.2,321.4 727.8,822.3 815.5,1394.7 47.5,3.2 95.9,6.4 143.7,9.5 -30.3,-213.3 -84.9,-417.9 -163.5,-608.7 0.2,0.1 0.4,0.2 0.6,0.3 -77,-187.1 -177,-361 -299.8,-517 578.3,238.2 1826.1,727.4 2442.2,780.5 268,23.1 637.1,30.9 1013.2,30.9 435.3,0 879.9,-10.4 1187.7,-19.6 305.4,9.2 748.7,19.6 1183.3,19.6 375.9,0 745.2,-7.8 1013.4,-30.9 615.5,-53.1 1861.3,-541.3 2440.5,-779.8 v 0 0 c -122.2,154.6 -223.1,328.2 -301,517.5 0.8,-0.4 1.5,-0.8 2.2,-1.1 v 0 0 c -80.6,195.3 -137.6,406.9 -167.6,632.3 48.2,-2.8 96.7,-5.6 144.5,-8.5 80.6,-566.4 337.8,-1039.8 737.7,-1357.8 0.1,-0.1 0.2,-0.2 0.4,-0.3 0.7,-0.6 1.6,-1.3 2.3,-1.9 0.3,-0.2 0.4,-0.3 0.7,-0.5 0.7,-0.5 1.4,-1.1 2.1,-1.7 0.3,-0.2 0.6,-0.5 0.9,-0.7 0.6,-0.5 1.2,-1 1.9,-1.5 0.4,-0.3 0.7,-0.6 1.1,-0.9 0.6,-0.4 1.1,-0.8 1.7,-1.2 0.4,-0.4 0.9,-0.8 1.4,-1.2 0.4,-0.3 0.9,-0.7 1.4,-1 0.5,-0.5 1.1,-0.9 1.7,-1.4 0.3,-0.2 0.7,-0.5 1,-0.8 0.7,-0.5 1.3,-1 2,-1.5 0.3,-0.2 0.5,-0.4 0.8,-0.7 0.8,-0.6 1.6,-1.2 2.4,-1.8 0.1,-0.1 0.3,-0.2 0.4,-0.3 0.9,-0.7 1.8,-1.4 2.7,-2.1 l 0.1,-0.1 c 29.3,-22.4 59.2,-44.1 89.9,-64.8 319.4,-216.4 693.8,-326.3 1093.4,-326.3 235,0 478.5,38 724.9,114.6 1.2,0.3 2.3,0.7 3.5,1 0.3,0.1 0.6,0.2 0.9,0.3 1,0.4 2.1,0.7 3.1,1 0.4,0.1 0.8,0.3 1.3,0.4 0.7,0.2 1.4,0.5 2.1,0.7 0.6,0.2 1.2,0.3 1.7,0.5 0.4,0.1 0.9,0.3 1.3,0.4 1.3,0.4 2.5,0.8 3.7,1.2 0.2,0 0.4,0.1 0.5,0.2 612.7,195.1 1173.3,607.9 1596.2,1172.2 C 30357.3,6023.3 31163,5705.8 31163,5361.4 31163,4526.7 26429.5,3850 20590.4,3850" style="fill:black;fill-opacity:0.3;fill-rule:nonzero;stroke:none" id="path14"/>
      <path d="m 15507.4,9007.4 c -436.5,644.5 -1046.6,1114.4 -1717.8,1323.2 -246.3,76.6 -489.9,114.5 -724.8,114.5 -399.7,0 -774.1,-109.9 -1093.5,-326.2 -1052,-712.6 -1177.4,-2370.6 -279.6,-3696.2 897.9,-1325.4 2484.4,-1824 3536.2,-1111.4 1051.9,712.5 1177.3,2370.5 279.5,3696.1" style="fill:#ea833e;fill-opacity:1;fill-rule:nonzero;stroke:none" id="path16"/>
      <path d="m 29557.3,12939.6 c -1048.5,2350.7 -3411.9,4315.4 -3719.6,4564.6 -2602.4,-1138.2 -5423.1,-1076.2 -7335.4,-822.6 -1895.2,251.5 -3296,735.9 -3542,824.5 -297.7,-240.9 -2670.6,-2209.7 -3721.8,-4566.5 -1036.6,-2324 -720.1,-3477.9 -222.6,-4046.1 121.9,552.7 416.1,1031.8 875.7,1343.1 225.5,152.8 476.3,255.4 742.8,308.4 136.3,78.4 1560.6,902.5 1825.4,1268.2 97.4,134.5 131.9,486.5 175.4,932.3 76.9,787.7 182.3,1866.6 713.8,2870.8 18.3,34.6 61.3,48 96.1,29.6 34.7,-18.4 48,-61.4 29.6,-96.1 -518.4,-979.4 -622.2,-2042.2 -698,-2818.2 -47.4,-485.3 -81.6,-836.1 -201.8,-1001.9 -219.3,-302.9 -1118.8,-862.8 -1590.9,-1144.5 273.9,9.6 559.2,-29.1 847.8,-118.9 701.9,-218.3 1338.8,-708.1 1793.4,-1379.2 795.5,-1174.5 817.3,-2603.1 131.7,-3474.5 578.3,238.2 1826.1,727.4 2442.2,780.5 578.4,49.9 1627.3,28.4 2200.9,11.3 569.4,17.2 1618.4,38.6 2196.7,-11.3 615.5,-53.1 1861.3,-541.3 2440.5,-779.8 -275.1,348.3 -442.4,792.3 -482.1,1296.8 -57.7,732.7 160.9,1505.9 615.5,2177 454.6,671.1 1091.5,1160.9 1793.4,1379.2 288.6,89.8 574,128.5 847.8,118.9 -472.2,281.7 -1371.6,841.6 -1590.9,1144.5 -120.2,165.8 -154.5,516.6 -201.9,1002.1 -75.7,775.9 -179.6,1838.6 -697.9,2818 -18.4,34.7 -5.1,77.7 29.6,96.1 34.8,18.4 77.7,5 96.1,-29.6 531.4,-1004.2 636.8,-2083 713.8,-2870.7 43.5,-445.8 77.9,-797.9 175.4,-932.4 264.7,-365.6 1688.9,-1189.7 1825.4,-1268.2 266.5,-53 517.3,-155.6 742.8,-308.4 448.5,-303.7 752,-772.1 877.3,-1341.3 496.6,568.9 811.3,1722.8 -224.2,4044.3" style="fill:#ea833e;fill-opacity:1;fill-rule:nonzero;stroke:none" id="path18"/>
      <path d="m 28824.5,10118.9 c -319.4,216.3 -693.8,326.2 -1093.5,326.2 -234.9,0 -478.5,-37.9 -724.8,-114.5 -671.2,-208.8 -1281.3,-678.7 -1717.9,-1323.2 -436.5,-644.5 -646.6,-1385.4 -591.5,-2086.2 54.7,-694.7 364.1,-1266.5 871.1,-1609.9 507.2,-343.6 1152.8,-418.6 1818.3,-211.7 671.3,208.7 1281.3,678.6 1717.8,1323.1 436.6,644.6 646.7,1385.4 591.6,2086.2 -54.7,694.8 -364,1266.5 -871.1,1610" style="fill:#ea833e;fill-opacity:1;fill-rule:nonzero;stroke:none" id="path20"/>
      <path d="m 21957.1,16615.5 c -167.2,41.7 -1305.1,-27.9 -1305.1,-27.9 l -211,-58.1 -211,58.1 c 0,0 -1137.9,69.6 -1305.1,27.9 0,0 -2446.9,-1261.8 -2446.9,-3903.8 0,-2642 1669.6,-4641.8 3963,-4641.8 2293.4,0 3963,1999.8 3963,4641.8 0,2642 -2446.9,3903.8 -2446.9,3903.8" style="fill:#ffc4a6;fill-opacity:1;fill-rule:nonzero;stroke:none" id="path22"/>
      <path d="m 14500.2,7522.9 c 312.9,-542 176,-1206.9 -305.9,-1485.1 -481.8,-278.2 -1126.1,-64.3 -1439.1,477.7 -312.9,542 -175.9,1206.9 305.9,1485.1 481.9,278.2 1126.2,64.3 1439.1,-477.7" style="fill:#ffc4a6;fill-opacity:1;fill-rule:nonzero;stroke:none" id="path24"/>
      <path d="m 12206.3,8175.6 c 146.9,-254.4 129.6,-539.3 -38.6,-636.4 -168.2,-97.1 -423.6,30.4 -570.4,284.7 -146.8,254.4 -129.5,539.3 38.6,636.4 168.2,97.1 423.6,-30.4 570.4,-284.7" style="fill:#ffc4a6;fill-opacity:1;fill-rule:nonzero;stroke:none" id="path26"/>
      <path d="m 12866.8,9283.3 c 146.9,-254.4 129.6,-539.3 -38.6,-636.4 -168.2,-97.1 -423.6,30.4 -570.4,284.7 -146.8,254.4 -129.5,539.3 38.6,636.4 168.2,97.1 423.6,-30.4 570.4,-284.7" style="fill:#ffc4a6;fill-opacity:1;fill-rule:nonzero;stroke:none" id="path28"/>
      <path d="m 14308.3,9283.3 c 146.9,-254.4 129.6,-539.3 -38.6,-636.4 -168.2,-97.1 -423.6,30.4 -570.4,284.7 -146.8,254.4 -129.5,539.3 38.6,636.4 168.2,97.1 423.6,-30.4 570.4,-284.7" style="fill:#ffc4a6;fill-opacity:1;fill-rule:nonzero;stroke:none" id="path30"/>
      <path d="m 26233.2,7522.9 c -312.9,-542 -176,-1206.9 305.9,-1485.1 481.9,-278.2 1126.2,-64.3 1439.1,477.7 312.9,542 176,1206.9 -305.9,1485.1 -481.9,278.2 -1126.2,64.3 -1439.1,-477.7" style="fill:#ffc4a6;fill-opacity:1;fill-rule:nonzero;stroke:none" id="path32"/>
      <path d="m 28527.1,8175.6 c -146.9,-254.4 -129.6,-539.3 38.6,-636.4 168.2,-97.1 423.6,30.4 570.4,284.7 146.9,254.4 129.6,539.3 -38.6,636.4 -168.2,97.1 -423.6,-30.4 -570.4,-284.7" style="fill:#ffc4a6;fill-opacity:1;fill-rule:nonzero;stroke:none" id="path34"/>
      <path d="m 27866.6,9283.3 c -146.9,-254.4 -129.6,-539.3 38.6,-636.4 168.2,-97.1 423.6,30.4 570.4,284.7 146.9,254.4 129.6,539.3 -38.6,636.4 -168.2,97.1 -423.6,-30.4 -570.4,-284.7" style="fill:#ffc4a6;fill-opacity:1;fill-rule:nonzero;stroke:none" id="path36"/>
      <path d="m 26425.1,9283.3 c -146.9,-254.4 -129.6,-539.3 38.6,-636.4 168.2,-97.1 423.6,30.4 570.4,284.7 146.9,254.4 129.6,539.3 -38.6,636.4 -168.2,97.1 -423.6,-30.4 -570.4,-284.7" style="fill:#ffc4a6;fill-opacity:1;fill-rule:nonzero;stroke:none" id="path38"/>
      <path d="m 11564.4,9958.9 v 0 c 96.8,102.2 204.9,194.6 324.2,275.7 -118.9,-80.8 -226.4,-173.2 -323,-274.9 l -1.2,-0.8 m 324.4,275.8 c 0.9,0.7 1.8,1.3 2.8,1.9 225.5,152.8 476.3,255.4 742.8,308.4 136.3,78.4 1560.6,902.5 1825.4,1268.2 97.4,134.5 131.9,486.5 175.4,932.3 76.9,787.7 182.3,1866.6 713.8,2870.8 v 0 c -531.5,-1004.2 -636.9,-2083.1 -713.8,-2870.8 -43.5,-445.8 -78,-797.8 -175.4,-932.3 -264.8,-365.7 -1689.1,-1189.8 -1825.4,-1268.2 -266.5,-53 -517.3,-155.6 -742.8,-308.4 -1,-0.6 -1.9,-1.2 -2.8,-1.9" style="fill:#9498d9;fill-opacity:1;fill-rule:nonzero;stroke:none" id="path40"/>
      <path d="m 11564.4,9958.9 -33,65 c 0,0 275.2,1045.7 1284.3,1733.8 1009.1,688 1201.7,1504.4 1513.6,2375.9 311.9,871.5 1019.7,1482.7 1019.7,1482.7 -531.5,-1004.2 -636.9,-2083.1 -713.8,-2870.8 -43.5,-445.8 -78,-797.8 -175.4,-932.3 -264.8,-365.7 -1689.1,-1189.8 -1825.4,-1268.2 -266.5,-53 -517.3,-155.6 -742.8,-308.4 -1,-0.6 -1.9,-1.2 -2.8,-1.9 -0.1,0 -0.1,0 -0.2,-0.1 -119.3,-81.1 -227.4,-173.5 -324.2,-275.7" style="fill:#b06649;fill-opacity:1;fill-rule:nonzero;stroke:none" id="path42"/>
      <path d="m 11688.8,6427.1 c -0.2,0.3 -0.4,0.5 -0.6,0.8 0.2,-0.3 0.4,-0.6 0.6,-0.8 m -3,4.4 c -0.2,0.2 -0.4,0.5 -0.5,0.7 0.1,-0.2 0.3,-0.5 0.5,-0.7 m -3.1,4.5 c -0.1,0.2 -0.2,0.3 -0.3,0.5 0.1,-0.2 0.2,-0.3 0.3,-0.5" style="fill:#9498d9;fill-opacity:1;fill-rule:nonzero;stroke:none" id="path44"/>
      <path d="m 15231.2,5313.5 c 0.4,0.3 0.8,0.5 1.1,0.8 -0.4,-0.3 -0.7,-0.5 -1.1,-0.8 m 3.4,2.4 c 0.4,0.2 0.8,0.5 1.2,0.8 -0.4,-0.3 -0.8,-0.6 -1.2,-0.8 m 3.5,2.4 c 0.4,0.2 0.8,0.5 1.1,0.7 -0.3,-0.2 -0.7,-0.5 -1.1,-0.7 m 3.6,2.4 c 0.3,0.2 0.6,0.4 0.9,0.6 -0.3,-0.2 -0.6,-0.4 -0.9,-0.6 m 4,2.8 c 0.1,0.1 0.2,0.1 0.2,0.2 0,-0.1 -0.1,-0.1 -0.2,-0.2 m 7.3,5.1 c 0.1,0.1 0.2,0.2 0.4,0.2 -0.2,0 -0.3,-0.2 -0.4,-0.2 m 3.4,2.4 c 0.2,0.1 0.4,0.2 0.6,0.4 -0.2,-0.1 -0.4,-0.3 -0.6,-0.4 m 3.5,2.5 c 0.2,0.1 0.3,0.2 0.5,0.3 -0.1,-0.1 -0.3,-0.2 -0.5,-0.3" style="fill:#777dc3;fill-opacity:1;fill-rule:nonzero;stroke:none" id="path46"/>
      <path d="m 14134.5,4986.3 c -874,0.1 -1822.7,521.1 -2442.8,1436.4 v 0 c -1,1.5 -2,2.9 -2.9,4.4 -0.2,0.2 -0.4,0.5 -0.6,0.8 -0.8,1.2 -1.6,2.4 -2.4,3.6 -0.2,0.2 -0.4,0.5 -0.5,0.7 -0.9,1.3 -1.7,2.6 -2.6,3.8 -0.1,0.2 -0.2,0.3 -0.3,0.5 -254.8,379.8 -425.3,786.5 -515,1190.1 304.3,-443.8 1511.2,-2054.4 3002.1,-2054.4 8.2,0 16.4,0 24.5,0.1 1598.1,19 1873.8,1480.9 1908.3,1720.5 42.1,-800 -244.6,-1535.5 -841.9,-1959 -0.2,-0.1 -0.3,-0.2 -0.5,-0.3 -1,-0.7 -1.9,-1.4 -2.9,-2.1 -0.2,-0.2 -0.4,-0.3 -0.6,-0.4 -1,-0.8 -2,-1.5 -3,-2.2 -0.2,0 -0.3,-0.1 -0.4,-0.2 -2.4,-1.7 -4.7,-3.3 -7.1,-4.9 0,-0.1 -0.1,-0.1 -0.2,-0.2 -1,-0.7 -2.1,-1.5 -3.1,-2.2 -0.3,-0.2 -0.6,-0.4 -0.9,-0.6 -0.9,-0.6 -1.6,-1.1 -2.5,-1.7 -0.3,-0.2 -0.7,-0.5 -1.1,-0.7 -0.8,-0.6 -1.5,-1.1 -2.3,-1.6 -0.4,-0.3 -0.8,-0.6 -1.2,-0.8 -0.7,-0.6 -1.5,-1.1 -2.3,-1.6 -0.3,-0.3 -0.7,-0.5 -1.1,-0.8 -1.1,-0.7 -2.2,-1.5 -3.3,-2.2 v 0 c -325.5,-220.5 -701.9,-325 -1093.4,-325" style="fill:#b06649;fill-opacity:1;fill-rule:nonzero;stroke:none" id="path48"/>
      <path d="m 29229,9961.6 c -97.8,102.3 -206.1,194.6 -324.8,275 -225.5,152.8 -476.3,255.4 -742.8,308.4 -136.5,78.5 -1560.7,902.6 -1825.4,1268.2 -97.5,134.5 -131.9,486.6 -175.4,932.4 v 0 0 c 43.5,-445.8 77.9,-797.9 175.4,-932.4 264.7,-365.6 1688.9,-1189.7 1825.4,-1268.2 266.5,-53 517.3,-155.6 742.8,-308.4 118.7,-80.4 227.2,-172.3 325,-274.5 l -0.2,-0.5 m -3068.9,2789.2 c -76.8,785.7 -182.8,1859.2 -710.3,2859.5 0.1,-0.1 0.2,-0.2 0.3,-0.3 527.4,-1000.2 633.2,-2073.5 710,-2859.2" style="fill:#9498d9;fill-opacity:1;fill-rule:nonzero;stroke:none" id="path50"/>
      <path d="m 29229.2,9962.1 c -97.8,102.2 -206.3,194.1 -325,274.5 -225.5,152.8 -476.3,255.4 -742.8,308.4 -136.5,78.5 -1560.7,902.6 -1825.4,1268.2 -97.5,134.5 -131.9,486.6 -175.4,932.4 v 0 c -0.2,1.7 -0.4,3.5 -0.5,5.2 -76.8,785.7 -182.6,1859 -710,2859.2 73.2,-65.1 718.6,-655 1012.6,-1476.4 311.9,-871.5 504.5,-1687.9 1513.6,-2375.9 1009.1,-688.1 1284.3,-1733.8 1284.3,-1733.8 l -31.4,-61.8" style="fill:#b06649;fill-opacity:1;fill-rule:nonzero;stroke:none" id="path52"/>
      <path d="m 26661.3,4985 c -399.6,0 -774,109.9 -1093.4,326.3 -30.7,20.7 -60.6,42.4 -89.9,64.8 29.3,-22.4 59.2,-44.1 89.9,-64.8 319.4,-216.4 693.8,-326.3 1093.4,-326.3 235,0 478.5,38 724.9,114.6 1.2,0.3 2.3,0.7 3.5,1 -1.2,-0.3 -2.3,-0.7 -3.5,-1 -246.4,-76.6 -489.9,-114.6 -724.9,-114.6 m 729.3,115.9 c 1,0.4 2.1,0.7 3.1,1 -1,-0.3 -2.1,-0.6 -3.1,-1 m 4.4,1.4 c 0.7,0.2 1.4,0.5 2.1,0.7 -0.7,-0.2 -1.4,-0.5 -2.1,-0.7 m 3.8,1.2 c 0.4,0.1 0.9,0.3 1.3,0.4 -0.4,-0.1 -0.9,-0.3 -1.3,-0.4 m 5,1.6 c 0.2,0.1 0.4,0.1 0.5,0.2 -0.1,-0.1 -0.3,-0.2 -0.5,-0.2 m -1925.9,271.1 c -0.9,0.7 -1.8,1.4 -2.7,2.1 0.9,-0.7 1.8,-1.4 2.7,-2.1 m -3.1,2.4 c -0.8,0.6 -1.6,1.2 -2.4,1.8 0.8,-0.6 1.6,-1.2 2.4,-1.8 m -3.2,2.5 c -0.7,0.5 -1.3,1 -2,1.5 0.7,-0.5 1.3,-1 2,-1.5 m -3,2.3 c -0.6,0.5 -1.2,0.9 -1.7,1.4 0.5,-0.5 1.1,-0.9 1.7,-1.4 m -3.1,2.4 c -0.5,0.4 -1,0.8 -1.4,1.2 0.5,-0.4 0.9,-0.8 1.4,-1.2 m -3.1,2.4 c -0.4,0.3 -0.7,0.6 -1.1,0.9 0.4,-0.3 0.7,-0.6 1.1,-0.9 m -3,2.4 c -0.3,0.2 -0.6,0.5 -0.9,0.7 0.3,-0.2 0.6,-0.5 0.9,-0.7 m -3,2.4 c -0.3,0.2 -0.4,0.3 -0.7,0.5 0.3,-0.2 0.4,-0.3 0.7,-0.5 m -3,2.4 c -0.2,0.1 -0.3,0.2 -0.4,0.3 0.1,-0.1 0.2,-0.2 0.4,-0.3" style="fill:#777dc3;fill-opacity:1;fill-rule:nonzero;stroke:none" id="path54"/>
      <path d="m 26661.3,4985 c -399.6,0 -774,109.9 -1093.4,326.3 -30.7,20.7 -60.6,42.4 -89.9,64.8 0,0.1 0,0.1 -0.1,0.1 -0.9,0.7 -1.8,1.4 -2.7,2.1 -0.1,0.1 -0.3,0.2 -0.4,0.3 -0.8,0.6 -1.6,1.2 -2.4,1.8 -0.3,0.3 -0.5,0.5 -0.8,0.7 -0.7,0.5 -1.3,1 -2,1.5 -0.3,0.3 -0.7,0.6 -1,0.8 -0.6,0.5 -1.2,0.9 -1.7,1.4 -0.5,0.3 -0.9,0.7 -1.4,1 -0.5,0.4 -0.9,0.8 -1.4,1.2 -0.6,0.4 -1.1,0.8 -1.7,1.2 -0.4,0.3 -0.7,0.6 -1.1,0.9 -0.7,0.5 -1.3,1 -1.9,1.5 -0.3,0.2 -0.6,0.5 -0.9,0.7 -0.7,0.6 -1.4,1.2 -2.1,1.7 -0.3,0.2 -0.4,0.3 -0.7,0.5 -0.7,0.6 -1.6,1.3 -2.3,1.9 -0.2,0.1 -0.3,0.2 -0.4,0.3 -437.7,348 -704.2,882.2 -755.7,1520.6 169.7,-514.1 626.1,-1329.8 1817,-1344 8.2,-0.1 16.3,-0.1 24.5,-0.1 1728.9,0 3077.1,2167.4 3077.1,2167.4 -146.6,-822.5 -641.2,-1518 -1027.9,-1923.5 -349.2,-328.8 -753.4,-573.8 -1183.7,-710.8 -0.1,-0.1 -0.3,-0.1 -0.5,-0.2 -1.2,-0.4 -2.4,-0.8 -3.7,-1.2 -0.4,-0.1 -0.9,-0.3 -1.3,-0.4 -0.6,-0.2 -1.1,-0.3 -1.7,-0.5 -0.7,-0.2 -1.4,-0.5 -2.1,-0.7 -0.5,-0.1 -0.9,-0.3 -1.3,-0.4 -1,-0.3 -2.1,-0.6 -3.1,-1 -0.3,-0.1 -0.6,-0.2 -0.9,-0.3 -1.2,-0.3 -2.3,-0.7 -3.5,-1 -246.4,-76.6 -489.9,-114.6 -724.9,-114.6" style="fill:#b06649;fill-opacity:1;fill-rule:nonzero;stroke:none" id="path56"/>
      <path d="m 16219.6,6738 c 101.6,716.8 -72,1532.8 -536.4,2260.9 464.4,-728 638.3,-1544.1 536.8,-2260.8 -0.3,-0.1 -0.1,-0.1 -0.4,-0.1 m 8351.2,24 -0.2,0.1 c -6.4,48.7 -11.6,98 -15.5,148 3.9,-50 9.2,-99.3 15.7,-148.1 m -24.8,381.1 c 0.2,661.7 218,1343.7 624.6,1944 33.4,49.3 67.8,97.6 103.1,145 0,-0.2 0.1,-0.4 0.1,-0.6 -35.3,-47.3 -69.9,-95.2 -103.2,-144.4 -406.6,-600.3 -624.4,-1282.3 -624.6,-1944 m -8863,1856.1 c -0.5,0.8 -1.2,1.8 -1.7,2.6 0.6,-0.9 1.1,-1.8 1.7,-2.6 m -1.9,2.9 c -2.2,3.5 -4.5,7.1 -6.8,10.6 2.3,-3.5 4.6,-7.1 6.8,-10.6 m -7.4,11.5 c -0.4,0.7 -0.9,1.4 -1.3,2.1 0.4,-0.7 0.9,-1.4 1.3,-2.1 m -2,3.2 c -0.4,0.7 -0.8,1.2 -1.3,1.9 0.5,-0.6 0.9,-1.3 1.3,-1.9 m -2,3.1 c -0.4,0.6 -0.8,1.3 -1.3,1.9 0.5,-0.6 0.9,-1.3 1.3,-1.9 m -2.2,3.4 c -0.6,1 -1.3,2 -2,3 0.7,-1 1.4,-2 2,-3 m -3,4.5 c -0.3,0.6 -0.7,1.2 -1.1,1.7 0.4,-0.5 0.8,-1.1 1.1,-1.7 m -2,3.2 c -0.4,0.6 -0.7,1.1 -1.1,1.7 0.3,-0.6 0.7,-1.2 1.1,-1.7 m -2.1,3.2 c -0.4,0.5 -0.7,1.1 -1.1,1.6 0.4,-0.5 0.8,-1.1 1.1,-1.6 m -2.3,3.5 c -0.3,0.5 -0.7,1 -1,1.5 0.4,-0.5 0.7,-1 1,-1.5 m -2.8,4.3 c -0.3,0.4 -0.6,0.8 -0.8,1.2 0.2,-0.4 0.5,-0.8 0.8,-1.2 m -2.1,3.1 c -0.3,0.5 -0.6,1 -0.9,1.5 0.3,-0.6 0.6,-1 0.9,-1.5 m -2.1,3.2 c -0.3,0.5 -0.6,1 -0.9,1.5 0.3,-0.5 0.6,-1 0.9,-1.5 m -2.2,3.4 c -0.3,0.4 -0.5,0.8 -0.8,1.2 0.2,-0.4 0.5,-0.8 0.8,-1.2 m -2.9,4.3 c -0.1,0.2 -0.2,0.3 -0.3,0.5 0.1,-0.2 0.2,-0.3 0.3,-0.5 m -2.1,3.2 c -0.2,0.4 -0.4,0.7 -0.7,1 0.2,-0.2 0.5,-0.7 0.7,-1 m -2.2,3.3 c -0.2,0.3 -0.4,0.7 -0.7,1 0.3,-0.3 0.5,-0.7 0.7,-1 m -2.2,3.3 c -0.2,0.3 -0.4,0.6 -0.6,1 0.2,-0.4 0.4,-0.7 0.6,-1 m -2.4,3.5 c -0.1,0.2 -0.3,0.5 -0.4,0.7 0.1,-0.2 0.3,-0.5 0.4,-0.7 m -2.5,3.8 c -0.2,0.3 -0.4,0.7 -0.6,0.9 0.2,-0.2 0.4,-0.6 0.6,-0.9 m -2.2,3.3 c -0.2,0.3 -0.5,0.7 -0.7,1 0.3,-0.3 0.5,-0.7 0.7,-1 m -2.1,3.2 c -0.3,0.3 -0.5,0.7 -0.8,1.1 0.3,-0.4 0.5,-0.7 0.8,-1.1 m -2.3,3.4 c -0.2,0.3 -0.5,0.6 -0.7,0.9 0.2,-0.3 0.5,-0.7 0.7,-0.9 m -2.8,4.1 v 0 c -33.5,49.4 -68.3,97.5 -103.7,145 0.1,0.2 0.1,0.4 0.1,0.6 35.5,-47.6 70.1,-96.1 103.6,-145.6 v 0 m -1003.2,2726 c -0.1,0.2 -0.2,0.3 -0.2,0.4 82.6,185.2 113.8,497.8 153.9,908 -40.1,-410.1 -71.2,-723.2 -153.7,-908.4 m 11551.5,0.6 c -80.5,181 -112,483.8 -150.7,879.8 38.7,-396 70.4,-698.4 151,-879.3 -0.1,-0.2 -0.2,-0.3 -0.3,-0.5 M 14776,12724.3 c 0.2,2.4 0.5,4.9 0.7,7.3 -0.2,-2.4 -0.5,-4.9 -0.7,-7.3 m 11243,7.5 c -0.6,5.9 -1.1,11.9 -1.7,17.9 0.6,-6 1.1,-12 1.7,-17.9 m -1.8,18.3 c -0.2,2.7 -0.5,5.4 -0.8,8.1 0.3,-2.7 0.6,-5.4 0.8,-8.1 m -1,10.9 c -0.1,0.9 -0.2,1.7 -0.3,2.5 0.1,-0.8 0.2,-1.6 0.3,-2.5" style="fill:#9498d9;fill-opacity:1;fill-rule:nonzero;stroke:none" id="path58"/>
      <path d="m 16056.1,6129.3 c 78.6,190.8 133.2,395.4 163.5,608.7 0.3,0 0.1,0 0.4,0.1 -30.2,-213.3 -84.8,-417.8 -163.3,-608.5 -0.2,-0.1 -0.4,-0.2 -0.6,-0.3 m 8682.3,0.4 c -0.7,0.3 -1.4,0.7 -2.2,1.1 -80.2,194.8 -136,406.3 -165.6,631.3 l 0.2,-0.1 c 30,-225.4 87,-437 167.6,-632.3" style="fill:#777dc3;fill-opacity:1;fill-rule:nonzero;stroke:none" id="path60"/>
      <path d="m 16056.7,6129.6 c 78.5,190.7 133.1,395.2 163.3,608.5 101.5,716.7 -72.4,1532.8 -536.8,2260.8 -0.1,0.1 -0.1,0.2 -0.2,0.3 -0.6,0.8 -1.1,1.7 -1.7,2.6 -0.1,0.1 -0.1,0.2 -0.2,0.3 -2.2,3.5 -4.5,7.1 -6.8,10.6 -0.2,0.3 -0.3,0.6 -0.6,0.9 -0.4,0.7 -0.9,1.4 -1.3,2.1 -0.2,0.3 -0.5,0.7 -0.7,1.1 -0.4,0.6 -0.8,1.3 -1.3,1.9 -0.2,0.4 -0.5,0.8 -0.7,1.2 -0.4,0.6 -0.8,1.3 -1.3,1.9 -0.3,0.5 -0.6,1 -0.9,1.5 -0.6,1 -1.3,2 -2,3 -0.3,0.5 -0.6,1 -1,1.5 -0.3,0.6 -0.7,1.2 -1.1,1.7 -0.3,0.5 -0.6,1 -0.9,1.5 -0.4,0.5 -0.8,1.1 -1.1,1.7 -0.3,0.5 -0.7,1 -1,1.5 -0.3,0.5 -0.7,1.1 -1.1,1.6 -0.4,0.6 -0.8,1.3 -1.2,1.9 -0.3,0.5 -0.6,1 -1,1.5 -0.6,0.9 -1.2,1.8 -1.8,2.8 -0.3,0.4 -0.6,0.8 -0.8,1.2 -0.5,0.7 -0.8,1.3 -1.3,1.9 -0.3,0.5 -0.6,0.9 -0.9,1.5 -0.4,0.5 -0.8,1.1 -1.2,1.7 -0.3,0.5 -0.6,1 -0.9,1.5 -0.5,0.6 -0.9,1.3 -1.3,1.9 -0.3,0.4 -0.6,0.8 -0.8,1.2 -0.7,1 -1.4,2.1 -2.1,3.1 -0.1,0.2 -0.2,0.3 -0.3,0.5 -0.6,0.8 -1.2,1.8 -1.8,2.7 -0.2,0.3 -0.5,0.8 -0.7,1 -0.5,0.8 -0.9,1.5 -1.5,2.3 -0.2,0.3 -0.4,0.7 -0.7,1 -0.4,0.7 -1,1.6 -1.5,2.3 -0.2,0.3 -0.4,0.6 -0.6,1 -0.6,0.8 -1.2,1.7 -1.8,2.5 -0.1,0.2 -0.3,0.5 -0.4,0.7 -0.7,1 -1.4,2.1 -2.1,3.1 -0.2,0.3 -0.4,0.7 -0.6,0.9 -0.5,0.8 -1.1,1.6 -1.6,2.4 -0.2,0.3 -0.4,0.7 -0.7,1 -0.5,0.8 -0.9,1.4 -1.4,2.2 -0.3,0.4 -0.5,0.7 -0.8,1.1 -0.5,0.8 -1,1.5 -1.5,2.3 -0.2,0.2 -0.5,0.6 -0.7,0.9 -0.7,1.1 -1.4,2.1 -2.1,3.2 v 0 c -33.5,49.5 -68.1,98 -103.6,145.6 54.8,310.7 148.7,1132.5 -261.4,1664.9 -385.6,500.9 -568.2,773.1 -638.2,915.5 82.5,185.2 113.6,498.3 153.7,908.4 0.1,0.9 0.2,1.9 0.3,2.8 0.2,2.4 0.5,4.9 0.7,7.3 v 0 c 43,439.9 95.1,972 226.5,1528.8 l 50.2,-25.9 c 0,0 508.4,-2114.2 1858.9,-3717.9 639.5,-1478.8 1933.1,-2446.7 3528.7,-2446.7 1671.6,0 3011.9,1062.5 3615.7,2661.6 1220.6,1571.1 1685.2,3503 1685.2,3503 l 50.6,26.1 c 128.3,-543.5 181,-1063.4 223.4,-1497.1 0.1,-0.8 0.2,-1.6 0.3,-2.5 0.1,-0.9 0.1,-1.9 0.2,-2.8 0.3,-2.7 0.6,-5.4 0.8,-8.1 0,-0.1 0.1,-0.3 0.1,-0.4 0.6,-6 1.1,-12 1.7,-17.9 v 0 c 1.3,-12.9 2.5,-25.6 3.8,-38.3 38.7,-396 70.2,-698.8 150.7,-879.8 -69.7,-142.3 -252.3,-414.4 -638.5,-916.1 -410.3,-532.8 -316,-1355.3 -261.3,-1665.5 -35.3,-47.4 -69.7,-95.7 -103.1,-145 -406.6,-600.3 -624.4,-1282.3 -624.6,-1944 0,-78 3,-155.7 9.1,-233 v 0 c 3.9,-50 9.1,-99.3 15.5,-148 29.6,-225 85.4,-436.5 165.6,-631.3 -236.5,119.8 -1144.6,569.1 -1623.8,652.5 -484.6,84.2 -2204.2,89.5 -2627,89.5 -37.1,0 -64.3,0 -79.7,-0.1 v 0 c 0,0 -3.1,0 -8.1,0 -5,0 -8.1,0 -8.1,0 v 0 c -15.4,0.1 -42.5,0.1 -79.7,0.1 -422.9,0 -2142.4,-5.3 -2627,-89.5 -480.6,-83.6 -1393,-535.5 -1626.1,-653.7" style="fill:#b06649;fill-opacity:1;fill-rule:nonzero;stroke:none" id="path62"/>
      <path d="m 20441,8069.9 c -1595.6,0 -2889.2,967.9 -3528.7,2446.7 823.5,-977.8 1960.2,-1765.9 3485.3,-1768.7 1635.5,3 2824.2,909 3659.1,1983.6 C 23452.9,9132.4 22112.6,8069.9 20441,8069.9" style="fill:#c09796;fill-opacity:1;fill-rule:nonzero;stroke:none" id="path64"/>
      <path d="m 22738.1,16071.2 c -221.6,186.8 -421,324.9 -562.7,415.3 447.7,41.6 904.9,105.2 1365.6,196.4 159.8,29.5 321.7,62.5 485,99.3 522.7,118 1004.4,264.1 1443.7,437.4 -810.1,-599.5 -1831.3,-946.9 -2731.6,-1148.4 m -4534,50 c -717,175.8 -1492.3,446.1 -2166.8,861.1 242.9,-73.8 496.4,-140.5 760.3,-200.1 686.5,-154.9 1350.7,-241.7 1918.9,-289.4 -129.6,-82.2 -309.8,-205.8 -512.4,-371.6" style="fill:#b06649;fill-opacity:1;fill-rule:nonzero;stroke:none" id="path66"/>
      <path d="m 20585.7,15794.1 c 0,0 -3,0 -8.3,0.1 -5.3,-0.1 -8.4,-0.1 -8.4,-0.1 v 0.3 c -140.1,2.9 -1172,34.3 -2364.9,326.8 202.6,165.8 382.8,289.4 512.4,371.6 530.9,-44.6 978,-55.1 1281.2,-55.1 22.8,0 44.9,0 66,0.1 229.1,-9.7 464.5,-15.1 704.9,-15.1 453.1,0 924.5,19.1 1406.8,63.8 141.7,-90.4 341.1,-228.5 562.7,-415.3 -1100.7,-246.2 -2020.7,-274.1 -2152.4,-276.8 v -0.3" style="fill:#c09796;fill-opacity:1;fill-rule:nonzero;stroke:none" id="path68"/>
      <path d="m 10770.3,9568 c -195.2,631.8 -176.3,1665.9 565.2,3328.4 669.1,1500 1881.2,2843.3 2740.1,3675 -112.3,-205.7 -275.5,-469.6 -507.7,-777.3 -577.9,-766 -1451.7,-1793.5 -2105.3,-3369.1 -491,-1183.4 -645.7,-2349.7 -692.3,-2857" style="fill:#f2b58b;fill-opacity:1;fill-rule:nonzero;stroke:none" id="path70"/>
      <path d="m 11923.2,10085.2 c 0.1,0 0.1,0.1 0.2,0.2 0,-0.1 -0.2,-0.2 -0.2,-0.2 m 3.4,2.4 c 0.2,0.2 0.4,0.4 0.7,0.5 -0.3,-0.1 -0.5,-0.3 -0.7,-0.5 m 3.4,2.5 c 0.3,0.2 0.6,0.4 0.9,0.6 -0.3,-0.2 -0.6,-0.4 -0.9,-0.6 m 3.7,2.7 c 0.2,0.1 0.4,0.3 0.6,0.4 -0.2,-0.1 -0.4,-0.3 -0.6,-0.4 m 4.2,2.9 v 0 0 m 3.4,2.4 c 0.3,0.2 0.6,0.5 0.9,0.7 -0.3,-0.3 -0.6,-0.5 -0.9,-0.7 m 3.4,2.4 c 0.4,0.3 0.8,0.6 1.2,0.9 -0.4,-0.3 -0.9,-0.6 -1.2,-0.9 m 3.4,2.4 c 0.4,0.3 0.9,0.6 1.2,0.9 -0.3,-0.3 -0.8,-0.6 -1.2,-0.9 m 3.8,2.7 c 0.3,0.2 0.6,0.4 0.9,0.6 -0.3,-0.2 -0.7,-0.5 -0.9,-0.6 m 4.3,2.9 c 0.2,0.2 0.6,0.5 0.9,0.7 -0.3,-0.3 -0.6,-0.4 -0.9,-0.7 m 3.4,2.4 c 0.4,0.3 0.8,0.6 1.3,0.9 -0.5,-0.3 -0.9,-0.6 -1.3,-0.9 m 3.5,2.4 c 0.4,0.3 0.8,0.6 1.3,0.9 -0.5,-0.3 -0.9,-0.6 -1.3,-0.9 m 3.6,2.5 c 0.4,0.2 0.8,0.5 1.1,0.7 -0.4,-0.2 -0.7,-0.4 -1.1,-0.7" style="fill:#dcdcff;fill-opacity:1;fill-rule:nonzero;stroke:none" id="path72"/>
      <path d="m 11102.4,8057.9 c -14,177 -12.1,351.3 5.5,520.3 27.5,8.4 53.4,23.7 74.8,45.8 68.4,70.2 66.8,182.5 -3.3,250.7 -6.2,6.1 -12.4,12.2 -18.7,18.6 113.5,485.6 369.4,907 762.5,1191.9 0,0 0.2,0.1 0.2,0.2 1.1,0.7 2.2,1.5 3.2,2.2 0.2,0.2 0.4,0.4 0.7,0.5 0.9,0.7 1.8,1.4 2.7,2 0.3,0.2 0.6,0.4 0.9,0.6 0.9,0.7 1.9,1.4 2.8,2.1 0.2,0.1 0.4,0.3 0.6,0.4 1.2,0.8 2.4,1.7 3.6,2.5 v 0 c 1.1,0.9 2.2,1.6 3.4,2.4 0.3,0.2 0.6,0.4 0.9,0.7 0.8,0.5 1.7,1.1 2.5,1.7 0.3,0.3 0.8,0.6 1.2,0.9 0.7,0.5 1.5,1 2.2,1.5 0.4,0.3 0.9,0.6 1.2,0.9 0.9,0.6 1.7,1.2 2.6,1.8 0.2,0.1 0.6,0.4 0.9,0.6 1.1,0.8 2.2,1.5 3.4,2.3 0.3,0.3 0.6,0.4 0.9,0.7 0.8,0.6 1.6,1.1 2.5,1.7 0.4,0.3 0.8,0.6 1.3,0.9 0.7,0.5 1.4,1 2.2,1.5 0.4,0.3 0.8,0.6 1.3,0.9 0.8,0.5 1.6,1.1 2.3,1.6 0.4,0.3 0.7,0.5 1.1,0.7 1.2,0.8 2.3,1.6 3.5,2.4 319.4,216.3 693.8,326.2 1093.5,326.2 234.9,0 478.5,-37.9 724.8,-114.5 671.2,-208.8 1281.3,-678.7 1717.8,-1323.2 44.7,-65.9 86,-132.8 125.6,-200.2 -350.7,303.4 -1546.9,1271.3 -2535.4,1271.3 -152.7,0 -300.4,-23.1 -439.3,-75.3 -1189.4,-447 -1546.7,-1907.3 -1555.9,-1945.3" style="fill:#f2b58b;fill-opacity:1;fill-rule:nonzero;stroke:none" id="path74"/>
      <path d="m 29976,9427.1 c -28.7,396.1 -159.9,1686.6 -703.9,2997.9 -653.6,1575.6 -1527.4,2603.1 -2105.3,3369.1 -279.9,370.9 -459.4,677.8 -570.3,895.9 862.4,-818.8 2161.8,-2219.9 2863.7,-3793.6 799.6,-1792.4 759,-2854.5 515.8,-3469.3" style="fill:#f2b58b;fill-opacity:1;fill-rule:nonzero;stroke:none" id="path76"/>
      <path d="m 28850.4,10101.1 c -0.3,0.1 -0.5,0.3 -0.8,0.5 0.3,-0.2 0.5,-0.4 0.8,-0.5 m -3.5,2.4 c -0.3,0.2 -0.5,0.4 -0.8,0.6 0.3,-0.2 0.5,-0.4 0.8,-0.6 m -3.5,2.4 c -0.2,0.2 -0.5,0.4 -0.8,0.6 0.3,-0.2 0.6,-0.4 0.8,-0.6 m -4.2,2.9 c -0.1,0.1 -0.3,0.2 -0.4,0.3 0.2,-0.1 0.3,-0.2 0.4,-0.3 m -3.3,2.3 c -0.4,0.3 -0.8,0.5 -1.2,0.8 0.4,-0.3 0.8,-0.5 1.2,-0.8 m -3.4,2.3 c -0.4,0.3 -0.8,0.6 -1.2,0.9 0.4,-0.3 0.8,-0.6 1.2,-0.9 m -3.5,2.4 c -0.4,0.3 -0.8,0.6 -1.1,0.8 0.4,-0.3 0.7,-0.5 1.1,-0.8" style="fill:#dcdcff;fill-opacity:1;fill-rule:nonzero;stroke:none" id="path78"/>
      <path d="m 29632.7,8056.1 c 0,0 -351.2,1494.2 -1556.3,1947.1 -138.9,52.2 -286.5,75.3 -439.3,75.3 -892,0 -1953.5,-788.5 -2410,-1165.3 20.1,31.5 40.2,63.1 61.2,94.2 436.6,644.5 1046.7,1114.4 1717.9,1323.2 246.3,76.6 489.9,114.5 724.8,114.5 399.7,0 774.1,-109.9 1093.5,-326.2 1.1,-0.8 2.3,-1.5 3.4,-2.3 0.3,-0.2 0.7,-0.5 1.1,-0.8 0.8,-0.5 1.5,-1 2.3,-1.5 0.4,-0.3 0.8,-0.6 1.2,-0.9 0.8,-0.5 1.5,-1 2.2,-1.5 0.4,-0.3 0.8,-0.5 1.2,-0.8 1,-0.7 2,-1.3 2.9,-2 0.1,-0.1 0.3,-0.2 0.4,-0.3 1.2,-0.8 2.3,-1.5 3.4,-2.3 0.3,-0.2 0.6,-0.4 0.8,-0.6 0.9,-0.6 1.8,-1.2 2.7,-1.8 0.3,-0.2 0.5,-0.4 0.8,-0.6 0.9,-0.7 1.8,-1.3 2.7,-1.9 0.3,-0.2 0.5,-0.4 0.8,-0.5 300.9,-211.3 529.7,-504.7 674.4,-857 42.5,-118.3 77.3,-239 103.4,-357.7 -4,-4 -7.9,-7.9 -11.9,-11.7 -70.1,-68.2 -71.6,-180.5 -3.3,-250.7 18.4,-18.9 40.1,-32.8 63.2,-41.7 18.8,-204.2 6.1,-388.6 -43.5,-526.2" style="fill:#f2b58b;fill-opacity:1;fill-rule:nonzero;stroke:none" id="path80"/>
      <path d="m 29740,8570.4 c -46.1,0 -92.3,17.9 -127,53.6 -68.3,70.2 -66.8,182.5 3.3,250.7 426.5,415.2 973.3,1489.9 -156.1,4021.7 -994.6,2230 -3189.4,4113.6 -3639.6,4484.6 -2608.3,-1121.3 -5421.2,-1058.2 -7332.2,-804.6 -1814.1,240.6 -3145.4,681.2 -3507.5,809.4 -437,-359.6 -2646.4,-2249.9 -3645.4,-4489.4 -1129.3,-2531.8 -582.5,-3606.5 -156.1,-4021.7 70.1,-68.2 71.7,-180.5 3.3,-250.7 -68.2,-70.2 -180.4,-71.7 -250.6,-3.3 -601.8,585.9 -1076.45,1828.4 79.6,4420.1 1142.3,2560.9 3717,4599.8 3826.1,4685.3 48.8,38.3 114.1,48.2 172.2,26.3 14.5,-5.5 1479.7,-554.2 3534,-825.8 1888,-249.5 4675.3,-309.4 7232.9,822.1 59.9,26.5 129.5,17.9 181.1,-22.6 109.1,-85.5 2683.8,-2124.4 3826.1,-4685.3 1156,-2591.7 681.4,-3834.2 79.6,-4420.1 -34.5,-33.5 -79.1,-50.3 -123.7,-50.3" style="fill:#021168;fill-opacity:1;fill-rule:nonzero;stroke:none" id="path82"/>
      <path d="m 13065.2,10338.8 c -378.8,0 -732.9,-103.6 -1034.4,-307.8 -1003.5,-679.7 -1116.2,-2271.7 -251.2,-3548.7 423.1,-624.7 1013.2,-1079.7 1661.5,-1281.4 634.1,-197.1 1247.4,-126.8 1727.2,198.2 1003.5,679.8 1116.2,2271.8 251.2,3548.8 -423.1,624.6 -1013.2,1079.6 -1661.5,1281.3 -235.7,73.3 -468.6,109.6 -692.8,109.6 z m 1070.2,-5602.5 c -259.8,0 -528.5,41.7 -799.6,126.1 -724.8,225.4 -1381.7,730.1 -1849.7,1421.1 -974.7,1438.8 -819.5,3251.7 345.9,4041.1 570.9,386.6 1292.3,473.1 2031.4,243.2 724.7,-225.5 1381.7,-730.1 1849.7,-1421.1 974.6,-1438.9 819.5,-3251.7 -346,-4041.1 -361.4,-244.9 -783.3,-369.3 -1231.7,-369.3" style="fill:#021168;fill-opacity:1;fill-rule:nonzero;stroke:none" id="path84"/>
      <path d="m 12658.4,10299.5 c -61.5,0 -121.4,32.1 -154.1,89.4 -48.5,85.1 -18.9,193.3 66.1,241.9 617.9,352.4 1608,974.7 1803.5,1244.6 80.5,111.2 117,484.9 155.6,880.4 77.8,796.6 184.4,1887.5 725.6,2910.2 45.8,86.5 153.1,119.6 239.6,73.8 86.6,-45.8 119.6,-153.1 73.8,-239.7 -508.6,-960.9 -611.1,-2011.6 -686.1,-2778.8 -50.9,-520.7 -84.5,-864.7 -221.4,-1053.9 -302.8,-418 -1750.8,-1251 -1914.9,-1344.6 -27.7,-15.8 -57.9,-23.3 -87.7,-23.3" style="fill:#021168;fill-opacity:1;fill-rule:nonzero;stroke:none" id="path86"/>
      <path d="m 27730.6,10338.8 c -224.3,0 -457.1,-36.3 -692.9,-109.6 -648.3,-201.7 -1238.3,-656.7 -1661.4,-1281.3 -865,-1277 -752.3,-2869 251.2,-3548.8 1003.4,-679.7 2523.6,-193.8 3388.6,1083.2 865,1277 752.3,2869 -251.2,3548.7 -301.3,204.2 -655.5,307.8 -1034.3,307.8 z m -1072,-5599.6 c -439.2,0 -863,117.8 -1230,366.4 -1165.4,789.4 -1320.6,2602.2 -345.9,4041.1 468,691 1125,1195.6 1849.7,1421.1 739.1,229.8 1460.4,143.4 2031.4,-243.2 1165.4,-789.4 1320.6,-2602.3 345.9,-4041.1 C 28642,5297.7 27614.3,4739.2 26658.6,4739.2" style="fill:#021168;fill-opacity:1;fill-rule:nonzero;stroke:none" id="path88"/>
      <path d="m 28137.3,10299.5 c -29.7,0 -59.9,7.4 -87.7,23.3 -164.1,93.6 -1612.1,926.6 -1914.8,1344.6 -137,189.2 -170.6,533.2 -221.4,1054 -75,767.2 -177.6,1817.9 -686.1,2778.7 -45.8,86.6 -12.8,193.9 73.8,239.7 86.4,45.8 193.8,12.7 239.6,-73.8 541.2,-1022.7 647.7,-2113.6 725.5,-2910.1 38.7,-395.6 75.2,-769.2 155.8,-880.5 195.4,-269.9 1185.5,-892.2 1803.3,-1244.6 85.1,-48.6 114.7,-156.8 66.2,-241.9 -32.7,-57.3 -92.6,-89.4 -154.2,-89.4" style="fill:#021168;fill-opacity:1;fill-rule:nonzero;stroke:none" id="path90"/>
      <path d="m 25315.6,5241.8 c -23.5,0 -47.4,4.7 -70.3,14.7 -19,8.2 -1909.7,823.6 -2669.9,889.2 -566.7,48.9 -1604.2,27.5 -2172.2,10.4 -3.5,-0.1 -7.1,-0.1 -10.6,0 -568.1,17.1 -1605.6,38.5 -2172.2,-10.4 -760.2,-65.6 -2650.9,-881 -2669.9,-889.2 -89.7,-38.9 -194.3,2.3 -233.1,92.2 -38.9,89.9 2.4,194.2 92.2,233.1 79.8,34.6 1962.9,846.6 2780.3,917.1 582.7,50.2 1631.2,29 2208,11.8 576.8,17.2 1625.2,38.5 2207.9,-11.8 817.5,-70.5 2700.6,-882.5 2780.4,-917.1 89.8,-38.9 131.1,-143.2 92.2,-233.1 -29,-66.9 -94.2,-106.9 -162.8,-106.9" style="fill:#021168;fill-opacity:1;fill-rule:nonzero;stroke:none" id="path92"/>
      <path d="m 13473.3,26425.3 c 0,0 -2015.3,-8.2 -2565.7,2294.4 -550.4,2302.6 1238.4,3898.8 3146.5,3531.8 1908.1,-366.9 2248.1,-1679.6 2248.1,-1679.6 0,0 475.3,-3776.1 -2828.9,-4146.6" style="fill:#ea833e;fill-opacity:1;fill-rule:nonzero;stroke:none" id="path94"/>
      <path d="m 15825.5,30442.3 c -244,315.3 -871.6,1058.9 -1480.1,1226.7 -364.9,116.3 -714.9,159.6 -1033.9,159.6 -669.3,0 -1201.7,-190.5 -1445.4,-296.2 454.3,385.9 1034.9,594.1 1642.7,594.1 169.2,0 340.6,-16.1 511.8,-49.1 1463.5,-281.4 1941.7,-1128.5 2069.8,-1437.3 -92.9,-66.2 -181.2,-132.3 -264.9,-197.8" style="fill:#f2b58b;fill-opacity:1;fill-rule:nonzero;stroke:none" id="path96"/>
      <path d="m 13990.5,27921.6 c 0,0 -1416.2,144 -1332.2,1584.5 84,1440.5 2080.2,1169.6 2299.4,-124.8 0,0 -633,-719 -967.2,-1459.7" style="fill:#ffc4a6;fill-opacity:1;fill-rule:nonzero;stroke:none" id="path98"/>
      <path d="m 13344.2,26610.1 c -435.2,42.5 -1827,321.7 -2264.2,2150.8 -237.5,993.6 -23.2,1933.8 587.8,2583.1 -175.5,-424.1 -329.3,-1137.4 -81.4,-2145.9 355.1,-1444 1519.4,-1898 1919.4,-2013.3 -23.8,-76.6 -45.6,-153.2 -65.4,-229.8 -30.1,-115.8 -62.3,-230.8 -96.2,-344.9" style="fill:#b06649;fill-opacity:1;fill-rule:nonzero;stroke:none" id="path100"/>
      <path d="m 13008.3,28702.9 c -119,195.6 -192.8,453.3 -173,792.9 40,687.1 538.5,788.3 751,800 18.8,1 37.7,1.5 56.7,1.5 469.3,0 989.3,-312.9 1123.7,-866.6 -36.3,-43.2 -87.4,-105.5 -148.3,-182.9 -146.5,290.4 -525.2,678.3 -909.3,678.3 -77.3,0 -154.8,-15.7 -230.6,-51.1 -379.7,-176.8 -458.5,-795.6 -470.2,-1172.1" style="fill:#c09796;fill-opacity:1;fill-rule:nonzero;stroke:none" id="path102"/>
      <path d="m 13508.8,32126.5 c -693.8,0 -1352.1,-271.2 -1827.6,-768.4 -621.3,-649.7 -840.4,-1596.4 -601.2,-2597.2 496.9,-2078.7 2226.6,-2155.6 2384.1,-2158.3 843.7,96.9 1501.1,437 1953.9,1011.2 876.3,1111.4 726.4,2765.5 709.6,2923.9 -37.4,125.5 -409.2,1213.2 -2107,1539.7 -171.2,33 -342.6,49.1 -511.8,49.1 m -35.5,-5701.2 h 0.5 -0.5 m -0.4,-177.3 c -35.2,0 -559.7,5.2 -1155.2,302.4 -556.2,277.6 -1282.3,872.1 -1582.5,2128.1 -267.8,1120.2 -16.4,2186.2 689.8,2924.7 675,705.8 1670.5,1013.2 2662.6,822.4 1995.2,-383.7 2371.2,-1751.2 2386.2,-1809.3 1.9,-7.3 3.3,-14.7 4.3,-22.2 9.8,-77.7 227.9,-1917.5 -780.3,-3198.1 -515.6,-654.8 -1257.3,-1040.7 -2204.7,-1146.9 -6.3,-0.7 -12.7,-1.1 -19,-1.1 h -1.2" style="fill:#021168;fill-opacity:1;fill-rule:nonzero;stroke:none" id="path104"/>
      <path d="m 13643,30297.3 c -19,0 -37.9,-0.5 -56.7,-1.5 -212.5,-11.7 -711,-112.9 -751,-800 -60,-1028.6 739.4,-1307.3 1052.5,-1376.7 288.8,585.3 722.5,1125.3 878.9,1311.6 -134.4,553.7 -654.4,866.6 -1123.7,866.6 m 347.5,-2553 c -5.9,0 -12,0.3 -18,0.9 -548.2,55.8 -1565.4,497.7 -1491.2,1771.2 46.3,794.3 591.1,1106.3 1085.5,1133.4 660,36.6 1426.5,-417.3 1565.8,-1238.9 8.8,-52.6 -6.5,-106.6 -41.7,-146.7 -6.3,-7 -619.8,-708.6 -938.9,-1415.5 -28.8,-64 -92.4,-104.4 -161.5,-104.4" style="fill:#021168;fill-opacity:1;fill-rule:nonzero;stroke:none" id="path106"/>
      <path d="m 18707.1,20854.9 c 185.7,-100.6 385.3,-173.2 589.4,-199.8 203.8,-27.4 411,-5.5 601.7,67.6 177.1,67 338.9,174.3 483.2,303.4 v 536.6 c -217.8,168.7 -993.9,796.4 -887.4,1098.5 69.8,198.1 523.5,241.2 787.8,249.2 37.2,1.1 909.4,24.8 1014.2,-225 39.8,-94.8 28.1,-229.8 -32.7,-380.1 -97.9,-241.4 -352.5,-577.7 -752.1,-753.4 v -498.7 c 165.1,-101.4 346.4,-186.7 529.5,-254 190.2,-70.3 388.4,-118.4 588.2,-129.2 199.2,-11.2 401.9,22.5 578.9,119.9 180.2,93.8 319.9,256.9 429.3,437.4 -84,-194.5 -216.8,-373.8 -397.7,-493.2 -90.4,-58.7 -190.7,-101.6 -294.5,-129.7 -104.1,-28.6 -211.8,-37.2 -318.5,-37.8 -214.3,-0.9 -424.3,46.9 -625,113.5 -185.7,63.6 -361.9,145.3 -533.5,245.7 l -1.8,-0.3 c -154.8,-136.8 -331.3,-252 -526.8,-322.7 -211.3,-72.8 -440.8,-93.9 -658.1,-51.4 -218.1,38 -422.3,128.8 -605.9,246.1 -91.4,59.8 -178.3,125.7 -260.3,197.3 -82.1,71.3 -159.9,148 -228.5,232.5 159.1,-146.4 333.1,-274 520.6,-372.4 M 17344.8,16920 c 921.2,-118.1 2061.1,-230.2 3067,-230.2 1005.8,0 2145.4,112.1 3066.5,230.1 164.1,29.9 330.2,63.4 497.3,101.2 1674,378.1 3784.8,1259.9 4333.7,3313.4 485.2,1930.7 -35.9,3339.2 -587.6,4830.4 -204.9,554 -416.8,1126.9 -572.7,1728.3 -227.8,878.2 -801.5,1949.2 -1730.2,2861.5 -7.8,4.4 -15,10.2 -20.7,17.9 -1,1.5 -1.2,3.2 -2.2,4.6 -301.9,294 -641.3,570.8 -1017.8,819.1 -18.3,2.6 -35.5,12.3 -46.1,29.7 l -0.3,0.8 c -1029.4,666.9 -2333.8,1118.9 -3919.9,1118.9 -1586.2,0 -2890.5,-452 -3919.9,-1118.9 l -0.3,-0.8 c -10.7,-17.3 -27.8,-27 -46.1,-29.6 -376.5,-248.3 -715.9,-525.2 -1017.9,-819.2 -0.9,-1.4 -1.1,-3.1 -2.1,-4.6 -5.8,-7.7 -12.9,-13.5 -20.7,-17.9 -928.7,-912.3 -1502.5,-1983.3 -1730.2,-2861.5 -155.9,-601.4 -367.8,-1174.3 -572.8,-1728.3 -551.6,-1491.2 -1072.7,-2899.7 -587.2,-4831.4 548.6,-2052.5 2659.4,-2934.3 4333.4,-3312.4 166.9,-37.7 332.9,-71.2 496.8,-101.1" style="fill:#ea833e;fill-opacity:1;fill-rule:nonzero;stroke:none" id="path108"/>
      <path d="m 23437.4,21028.2 c 0,-1411.3 -1368.2,-2555.5 -3056,-2555.5 -1687.7,0 -3056,1144.2 -3056,2555.5 0,1411.3 1368.3,2555.4 3056,2555.4 1687.8,0 3056,-1144.1 3056,-2555.4" style="fill:#ffc4a6;fill-opacity:1;fill-rule:nonzero;stroke:none" id="path110"/>
      <path d="m 21143.5,22356.9 c 46.5,114.7 58.7,215.1 33.4,275.4 -26.8,63.8 -337.8,146.1 -780.2,146.1 -36.2,0 -73.2,-0.5 -111,-1.7 -402.5,-12.3 -645.5,-92.2 -669.8,-161.2 -50.7,-143.8 391.4,-595.8 839.9,-943.2 366.7,159.2 599,465.6 687.7,684.6" style="fill:#021168;fill-opacity:1;fill-rule:nonzero;stroke:none" id="path112"/>
      <path d="m 18441.3,20973.3 c -3.2,2.7 -6.4,5.3 -9.6,7.9 3.2,-2.6 6.5,-5.2 9.6,-7.9 m -9.6,7.9 c -5.6,4.4 -11.3,8.9 -16.7,13.6 -3,2.6 -6,5.2 -8.9,7.8 8.2,-7 16.8,-14.2 25.6,-21.4 m -25.6,21.4 c -95.3,81 -147.1,141.9 -147.1,141.9 0,0 1.1,-0.3 2.8,-0.8 46,-49.2 93.8,-96.6 144.3,-141.1" style="fill:#c09796;fill-opacity:1;fill-rule:nonzero;stroke:none" id="path114"/>
      <path d="m 22550.2,21061.6 c 2.9,4.8 6,9.3 8.9,14.1 l 0.5,0.2 c 0,0 -3.2,-5.2 -9.4,-14.3" style="fill:#c09796;fill-opacity:1;fill-rule:nonzero;stroke:none" id="path116"/>
      <path d="m 21701.7,20668 c -24.3,0 -48.6,0.7 -72.8,2 -199.8,10.8 -398,58.9 -588.2,129.2 -183.1,67.3 -364.4,152.6 -529.5,254 v 498.7 c 100.7,44.3 192.2,98.9 274.3,159.5 13.9,-103.2 62.3,-382.9 196.1,-552.1 103.1,-130.4 444.1,-263.3 837.5,-263.3 227.1,0 471.7,44.3 698,159.1 -87.2,-108.9 -189.1,-202.6 -309.3,-265.2 -155.5,-85.5 -330.8,-121.9 -506.1,-121.9" style="fill:#c09796;fill-opacity:1;fill-rule:nonzero;stroke:none" id="path118"/>
      <path d="m 19465.8,20643.7 c -56.4,0 -113,3.8 -169.3,11.4 -204.1,26.6 -403.7,99.2 -589.4,199.8 -146.4,76.9 -284.4,172 -413.7,279.5 151.3,-44 776.7,-218.5 1175.5,-218.5 74.1,0 140.5,6.1 194.5,20.1 330.4,85.9 435.4,671.8 458.8,838.8 107.4,-92.6 202.4,-168.1 259.2,-212.1 v -536.6 c -144.3,-129.1 -306.1,-236.4 -483.2,-303.4 -138,-52.9 -284.6,-79 -432.4,-79" style="fill:#c09796;fill-opacity:1;fill-rule:nonzero;stroke:none" id="path120"/>
      <path d="m 20022.6,16793.3 c -605.3,0 -1852.8,41.9 -3153.9,336.4 -2388.3,540.4 -3816.7,1628.1 -4245,3230.3 -307.5,1223.4 -203,2237 56.2,3197.7 81.5,-867.1 466.8,-3215.1 2274.5,-4397.4 2243,-1467.2 5491.9,-1519 5491.9,-1519 0,0 3248.9,51.8 5492,1519 1689.3,1104.9 2136.3,3227.7 2254.1,4208.7 222.4,-904.8 295.2,-1864.4 8.1,-3006.5 -428.9,-1604.7 -1857.3,-2692.4 -4245.6,-3232.8 -1301.3,-294.5 -2548.9,-336.4 -3154.1,-336.4 -236.9,0 -375.4,6.4 -380.2,6.6 -2.9,0.2 -5.8,0.3 -8.8,0.3 -3,0 -5.9,-0.1 -8.8,-0.3 -4.8,-0.2 -143.3,-6.6 -380.4,-6.6" style="fill:#b06649;fill-opacity:1;fill-rule:nonzero;stroke:none" id="path122"/>
      <path d="m 13737.3,26694 c 15.9,57 31.3,114.3 46.2,171.9 328.4,1266.1 1388.8,2940.1 3210.4,3931 38.3,-23.5 77.6,-47.5 118.1,-72.1 0,0 0.1,-0.1 0.1,-0.1 0.9,-0.5 1.8,-1.1 2.7,-1.6 0.2,-0.2 0.4,-0.3 0.6,-0.4 0.8,-0.5 1.7,-1 2.5,-1.5 0.2,-0.1 0.5,-0.3 0.7,-0.4 1.4,-0.9 3,-1.8 4.4,-2.7 0.6,-0.4 1.1,-0.7 1.8,-1.1 0.5,-0.3 0.9,-0.6 1.5,-0.9 0.8,-0.5 1.7,-1.1 2.6,-1.6 0.7,-0.4 1.2,-0.7 1.9,-1.1 0.8,-0.5 1.6,-1 2.3,-1.5 0.7,-0.4 1.4,-0.8 2,-1.2 0.4,-0.2 0.8,-0.5 1.2,-0.7 1.3,-0.7 2.5,-1.5 3.8,-2.3 0.6,-0.4 1.2,-0.7 1.8,-1.1 0.5,-0.3 0.9,-0.5 1.3,-0.8 0.7,-0.4 1.4,-0.8 2.1,-1.3 0.6,-0.3 1.2,-0.7 1.8,-1 1,-0.7 2.1,-1.3 3.2,-2 0.1,0 0.2,-0.1 0.3,-0.1 1.3,-0.8 2.5,-1.5 3.7,-2.3 0.4,-0.3 0.8,-0.5 1.2,-0.7 0.9,-0.5 1.7,-1.1 2.6,-1.6 0.4,-0.2 0.8,-0.5 1.1,-0.7 1.3,-0.8 2.6,-1.5 3.9,-2.3 v 0 c 44.7,-27.1 90.7,-54.8 138.1,-83.2 0.1,0 0.2,-0.1 0.3,-0.2 2.9,-1.7 5.9,-3.5 8.8,-5.2 l 0.1,-0.1 c 2.9,-1.7 5.9,-3.5 8.8,-5.3 h 0.1 c 5.9,-3.5 11.7,-7 17.6,-10.5 0.1,-0.1 0.3,-0.2 0.5,-0.3 2.7,-1.6 5.4,-3.2 8.1,-4.9 0.4,-0.2 0.9,-0.5 1.2,-0.7 2.8,-1.6 5.5,-3.3 8.3,-4.9 0.2,-0.2 0.5,-0.3 0.8,-0.5 1.1,-0.7 2.2,-1.3 3.3,-2 0.4,-0.2 0.7,-0.4 1.1,-0.6 1.2,-0.7 2.5,-1.5 3.8,-2.3 0.4,-0.2 0.8,-0.5 1.3,-0.7 1,-0.6 2,-1.2 3,-1.8 0.4,-0.3 0.8,-0.5 1.2,-0.7 2.7,-1.7 5.5,-3.3 8.2,-5 0.3,-0.1 0.7,-0.3 0.9,-0.5 1.1,-0.6 2,-1.2 3,-1.8 0.6,-0.3 1.1,-0.6 1.6,-0.9 1.3,-0.8 2.7,-1.6 4,-2.4 0.2,-0.1 0.2,-0.1 0.4,-0.2 1.2,-0.8 2.5,-1.5 3.7,-2.2 0.3,-0.2 0.7,-0.4 1,-0.6 1.4,-0.9 2.8,-1.7 4.2,-2.5 v 0 c 1.3,-0.8 2.5,-1.5 3.8,-2.3 0.6,-0.3 1.2,-0.7 1.7,-1 1.2,-0.7 2.3,-1.3 3.4,-2 0.2,-0.1 0.3,-0.2 0.5,-0.3 1.4,-0.8 2.7,-1.6 4.1,-2.4 0.5,-0.3 0.9,-0.6 1.4,-0.9 1,-0.6 2.1,-1.2 3.1,-1.8 0.3,-0.2 0.5,-0.3 0.8,-0.5 1.5,-0.9 2.9,-1.7 4.4,-2.6 0.2,0.4 0.3,0.8 0.5,1.2 0,0 0,0 0,0 45.3,106.4 140.9,318.4 292.3,593.1 64.9,25.9 130.6,50.9 197.1,75.1 -205.3,-355.1 -326.3,-627.3 -372.9,-738.4 v 0 0 c 210.5,-123.9 443.5,-258 699.6,-401.8 -454.6,30.3 -796.6,194.4 -865.5,444.8 -647.9,-261.4 -1254,-612.5 -1704.9,-1066.2 -1007.8,-1014.2 -1729.6,-2361.6 -1928.6,-2753.8 m 12863.2,831.9 c -30.4,50 -62,101.2 -94.8,153.5 29.5,101.7 58.7,208.7 86.7,320.2 32,-60.8 62.5,-121.4 91.7,-181.7 -27.4,-101.8 -55.5,-199.2 -83.6,-292 M 22844,30724.7 c -43.7,13.7 -87.3,27.1 -131,40.1 74.2,142.7 149.1,288.3 224.3,436.1 42.5,-15.7 84.7,-31.7 126.6,-48 -73.7,-145.1 -147.1,-288 -219.9,-428.2" style="fill:#f2b58b;fill-opacity:1;fill-rule:nonzero;stroke:none" id="path124"/>
      <path d="m 20411.8,16800.2 c 3,0 5.9,-0.1 8.8,-0.3 16.9,-0.7 1723.6,-79.9 3534.3,329.8 2388.3,540.4 3816.7,1628.1 4245.6,3232.8 476.7,1896.6 -38.7,3289.8 -584.4,4764.8 -205.9,556.5 -418.8,1132 -576,1738.6 -497.2,1917.2 -2672.6,4769.4 -6628.3,4769.4 -3955.7,0 -6131.1,-2852.2 -6628.3,-4769.4 -157.2,-606.6 -370.1,-1182.1 -576,-1738.6 -545.7,-1475 -1061.1,-2868.2 -583.8,-4767.3 428.3,-1602.2 1856.7,-2689.9 4245,-3230.3 1810.7,-409.8 3517.4,-330.6 3534.3,-329.8 2.9,0.2 5.8,0.3 8.8,0.3 m 414.3,-362.5 c -227.6,0 -374.1,5.9 -414.3,7.7 -151,-6.9 -1805.4,-71.3 -3614.2,336.8 -2495.6,563.1 -4057.5,1769.5 -4517.1,3488.8 -504.7,2008.1 54.1,3518.6 594.4,4979.3 202.9,548.3 412.6,1115.3 565.5,1704.7 317.1,1222.9 1128.2,2447 2225.5,3358.5 920.7,764.8 2491.4,1676.4 4745.9,1676.4 2254.5,0 3825.2,-911.6 4745.9,-1676.4 1097.3,-911.5 1908.4,-2135.6 2225.5,-3358.5 152.9,-589.4 362.6,-1156.4 565.5,-1704.7 540.4,-1460.7 1099.1,-2971.2 595,-4976.8 -460.2,-1721.8 -2022.1,-2928.2 -4517.7,-3491.3 -1327.6,-299.5 -2572.1,-344.5 -3199.9,-344.5" style="fill:#021168;fill-opacity:1;fill-rule:nonzero;stroke:none" id="path126"/>
      <path d="m 21090.6,22563.4 z m -1361.1,8.5 c 42.1,-134.3 370.3,-474.8 741.5,-770.2 296.2,149.4 487.6,403.4 564.8,588.1 38.6,92.4 43.6,152.9 40.8,182.6 -69.6,37.4 -310.5,95.2 -682.6,95.5 -1.2,0 -2.4,0 -3.5,0 -377.3,0 -592.8,-58.8 -661,-96 z m 716.8,-1152.9 c -38.3,0 -76.1,12.4 -107.5,36.3 -499.3,381.2 -1069.5,906.1 -951.1,1242 70.4,199.5 371.8,308.4 895.9,323.6 229.8,6.9 991,5.3 1116.3,-293.5 52.9,-126.1 40.1,-290.1 -37,-474.4 -111.3,-266.2 -400.9,-641 -850.6,-821.3 -21.3,-8.6 -43.7,-12.7 -66,-12.7" style="fill:#021168;fill-opacity:1;fill-rule:nonzero;stroke:none" id="path128"/>
      <path d="m 18186.5,21227.3 c 551.2,-411.3 1312.2,-711.6 1924.3,-271.6 81.6,51.2 154.1,116.9 226.8,180.5 60.7,56 151.3,62.5 217.6,19.6 35.2,-22.6 80.3,-49 122.3,-71.9 452.5,-236.7 1008.7,-464.4 1506.7,-244.9 175.2,77.6 323.7,221.1 452.9,388.3 -32.8,-99.9 -73.1,-201 -135.5,-291.1 -397.8,-617.7 -1266.6,-512.4 -1843.3,-235.2 -104.2,47.7 -195.5,96.1 -295.8,157.6 l 217.6,19.5 c -776.9,-746.4 -1816.2,-490.4 -2393.6,349.2" style="fill:#021168;fill-opacity:1;fill-rule:nonzero;stroke:none" id="path130"/>
      <path d="m 20446.3,20811 c -97.9,0 -177.3,79.4 -177.3,177.3 v 607.9 c 0,97.9 79.4,177.3 177.3,177.3 97.9,0 177.3,-79.4 177.3,-177.3 v -607.9 c 0,-97.9 -79.4,-177.3 -177.3,-177.3" style="fill:#021168;fill-opacity:1;fill-rule:nonzero;stroke:none" id="path132"/>
      <path d="m 23268.5,34827.4 c -2303.4,486.7 -4065.5,-337.8 -5180.4,-1174 -1198.7,-899.2 -1901.4,-1982.4 -2054.4,-2232.4 142.7,-101 592.1,-410 1386,-881 113.9,268.1 552.5,1218 1403.7,2147.5 855.5,934 2302,2024.2 4445.1,2139.9" style="fill:#18d672;fill-opacity:1;fill-rule:nonzero;stroke:none" id="path134"/>
      <path d="m 24122.8,34593.7 c -116.1,39.2 -230.6,73.8 -344.3,106.5 -2375.8,45.3 -3950.3,-1117.4 -4853.3,-2101.9 -858.3,-935.9 -1289.9,-1892.3 -1388.5,-2127.3 884.6,-520.3 2166.4,-1223.7 3892.9,-2054.8 277.6,482 2323.6,4066.7 2952,6084.7 -85.3,32 -171.3,63.2 -258.8,92.8" style="fill:#18d672;fill-opacity:1;fill-rule:nonzero;stroke:none" id="path136"/>
      <path d="m 24483.3,34608.3 1.4,-0.1 2.2,-1.2 c 331.6,-127.2 645.6,-272.2 941.3,-434.4 7.2,-2.4 13.6,-6.2 19.8,-11 15.1,-8.4 30.2,-16.7 45.2,-25.1 53.5,104.7 154.6,338.2 91.7,507.2 -81.3,218.5 -1008.3,598.1 -1191.5,531.7 -130.8,-47.6 -261.8,-279.3 -327.7,-420.3 33.2,-10.8 66.1,-20.5 99.6,-31.8 107.8,-36.4 213.6,-75 318,-115" style="fill:#18d672;fill-opacity:1;fill-rule:nonzero;stroke:none" id="path138"/>
      <path d="m 26792.6,29062.6 c 167.7,1355.4 56,3319.1 -1423.4,4986.8 -271.6,149.4 -558.9,284.1 -861.7,403.4 -631.3,-2020.3 -2656.3,-5574.5 -2956,-6095.2 25.1,-12 49.2,-23.7 74.5,-35.8 1839.6,-878.6 3359.9,-1441 4458.8,-1791.5 110.1,236.6 547.7,1238.1 707.8,2532.3" style="fill:#18d672;fill-opacity:1;fill-rule:nonzero;stroke:none" id="path140"/>
      <path d="m 28387.9,26626.2 c -84,-268 -184.1,-510.6 -296.8,-719.4 -12.3,-22.8 -36,-36.3 -61.1,-35.5 -3,0.1 -6,0.4 -9.1,0.9 -12.9,2.2 -701,124.4 -1916.6,509 -5.3,1.2 -10.6,1.5 -15.7,4.1 l -1.6,1.3 c -57.8,18.3 -117.2,37.5 -177.3,57 2008.7,-2052.6 3838.3,-3359.4 4724.9,-3387.7 71.7,-2.3 137.2,3.8 196.1,18.5 157.7,39.4 259,141.1 309.6,311.1 289.4,972.7 -2274.7,2893.2 -2752.4,3240.7" style="fill:#18d672;fill-opacity:1;fill-rule:nonzero;stroke:none" id="path142"/>
      <path d="m 26925.4,29041.3 c -159.1,-1281.1 -586,-2279.8 -711.2,-2552 990,-310.1 1612.1,-440.5 1782.1,-473.6 110.3,212.4 207.5,458.5 288,729.9 0.7,5.5 2.5,10.7 4.6,16.1 338.9,1155.9 374.1,2767.6 -187.1,4220.8 -461.2,1194.2 -1274.2,2163.9 -2387.2,2863.7 1281.1,-1639.4 1373.2,-3498.9 1210.8,-4804.9" style="fill:#18d672;fill-opacity:1;fill-rule:nonzero;stroke:none" id="path144"/>
      <path d="m 31153.6,23242.2 c 0,0 6.1,38.3 -17.7,129.3 1.5,4.6 3,9.3 4.4,14 289.4,972.7 -2274.7,2893.2 -2752.4,3240.7 -31.3,-99.6 -64.7,-195.7 -100.2,-287.9 -35.6,26.4 -55.1,40.6 -55.1,40.6 l 119.7,315 147.7,-65.3 c 0,0 1029.5,-782.1 1484.3,-1216.4 454.8,-434.3 953,-982.9 1101.2,-1393.7 148.1,-410.9 68.1,-776.3 68.1,-776.3" style="fill:#dcdcff;fill-opacity:1;fill-rule:nonzero;stroke:none" id="path146"/>
      <path d="m 31135.9,23371.5 c -32.8,125.8 -122.5,352 -363.9,716.4 -480.8,748.5 -2158.4,2009.3 -2484.3,2250.4 35.5,92.2 68.9,188.3 100.2,287.9 477.7,-347.5 3041.8,-2268 2752.4,-3240.7 -1.4,-4.7 -2.9,-9.4 -4.4,-14" style="fill:#74e6aa;fill-opacity:1;fill-rule:nonzero;stroke:none" id="path148"/>
      <path d="m 27979.6,25879.9 c -50,9.7 -144.7,28.8 -281.4,60 v 0 c 136.8,-31.2 231.5,-50.3 281.4,-60 0,0 0,0.1 0,0" style="fill:#9498d9;fill-opacity:1;fill-rule:nonzero;stroke:none" id="path150"/>
      <path d="m 27289,26039.5 c -200.7,51.6 -440.6,117 -717.2,198.6 0,0.1 0,0.1 -0.1,0.1 276.6,-81.7 516.6,-147.1 717.3,-198.7 v 0" style="fill:#b06649;fill-opacity:1;fill-rule:nonzero;stroke:none" id="path152"/>
      <path d="m 27698.2,25939.9 c -109.8,25 -246.6,57.7 -409.2,99.6 v 0 c 162.6,-41.8 299.4,-74.6 409.2,-99.6 v 0" style="fill:#021168;fill-opacity:1;fill-rule:nonzero;stroke:none" id="path154"/>
      <path d="m 30460.3,23411.3 c -176.5,0 -429,63.9 -788.5,259.6 -996.9,542.8 -2482.1,1808.2 -3100,2567.2 276.6,-81.6 516.5,-147 717.2,-198.6 162.6,-41.9 299.4,-74.6 409.2,-99.6 136.7,-31.2 231.4,-50.3 281.4,-60 382.3,-469.8 1887.9,-2244.4 2817.6,-2244.4 19.6,0 39,0.8 58.1,2.4 0,0 -62.7,-226.6 -395,-226.6" style="fill:#12a56f;fill-opacity:1;fill-rule:nonzero;stroke:none" id="path156"/>
      <path d="m 21551.5,28357.6 c 75.9,131.9 262.7,458.7 509.4,905.8 0.1,-0.1 -0.1,0 0,0 -246.7,-447.1 -433.5,-773.9 -509.4,-905.8" style="fill:#b06649;fill-opacity:1;fill-rule:nonzero;stroke:none" id="path158"/>
      <path d="m 26793.3,29068.4 c 0,0.3 0.1,0.4 0.1,0.6 0,-0.2 -0.1,-0.4 -0.1,-0.6" style="fill:#9498d9;fill-opacity:1;fill-rule:nonzero;stroke:none" id="path160"/>
      <path d="m 26084.8,26530.3 c -1098.9,350.5 -2619.2,912.9 -4458.8,1791.5 -25.3,12.1 -49.4,23.8 -74.5,35.8 v 0 c 75.9,131.9 262.7,458.7 509.4,905.8 794.9,-233.8 1651.3,-372.3 2452.4,-372.3 896.9,0 1724.7,173.7 2319.1,581.7 -9.9,-139.5 -23.1,-274.5 -39,-403.8 0,-0.2 -0.1,-0.3 -0.1,-0.6 -0.2,-1.9 -0.5,-3.8 -0.7,-5.8 v 0 c -23.1,-186.5 -51.9,-367 -84.7,-539.9 -34.8,-183.4 -74,-358.2 -115.5,-523.1 -28,-111.5 -57.2,-218.5 -86.7,-320.2 -171.1,-590.3 -354.9,-1007.2 -420.9,-1149.1" style="fill:#12a56f;fill-opacity:1;fill-rule:nonzero;stroke:none" id="path162"/>
      <path d="m 26698.4,26342.9 c 0,0.1 -0.1,0.1 -0.1,0.1 0,0 0.1,0 0.1,-0.1 m -9.7,2.9 c -0.6,0.2 -1.3,0.3 -1.9,0.5 0.6,-0.2 1.3,-0.3 1.9,-0.5 m -2.1,0.6 c -119.4,34.8 -246.2,72.8 -380.1,114.2 133.8,-41.4 260.6,-79.4 380.1,-114.2 m -380.9,114.5 c -3.5,1 -7,2.1 -10.5,3.2 3.5,-1.1 7,-2.2 10.5,-3.2 m -11.3,3.4 c -1.8,0.6 -3.6,1.2 -5.4,1.7 1.8,-0.5 3.6,-1.1 5.4,-1.7 m -6,1.9 c -1.3,0.4 -2.5,0.8 -3.8,1.2 1.2,-0.4 2.6,-0.8 3.8,-1.2 m -5.7,1.8 c -0.5,0.1 -1.1,0.3 -1.6,0.5 0.5,-0.2 1.1,-0.4 1.6,-0.5 m -3,0.9 c -0.6,0.2 -1.3,0.4 -1.9,0.6 0.6,-0.2 1.3,-0.4 1.9,-0.6 m -2.7,0.9 c -1.5,0.4 -2.9,0.9 -4.4,1.3 1.4,-0.4 2.9,-0.9 4.4,-1.3 m -5.6,1.7 c -0.5,0.1 -0.9,0.3 -1.4,0.4 0.5,-0.1 0.9,-0.3 1.4,-0.4 m -3.2,1 c -0.6,0.2 -1,0.3 -1.5,0.5 0.5,-0.2 0.9,-0.3 1.5,-0.5 m -4.6,1.4 c -0.1,0 -0.1,0.1 -0.2,0.1 0.1,-0.1 0.1,-0.1 0.2,-0.1 m -3.7,1.2 c -0.3,0.1 -0.5,0.1 -0.7,0.2 0.3,-0.1 0.4,-0.1 0.7,-0.2 m -3.6,1.1 c -0.2,0.1 -0.4,0.1 -0.7,0.2 0.2,-0.1 0.5,-0.2 0.7,-0.2 m -3.6,1.1 c -0.3,0.1 -0.5,0.2 -0.8,0.3 0.2,-0.1 0.6,-0.2 0.8,-0.3 m -4.3,1.4 c -0.1,0 -0.1,0 -0.1,0 h 0.1 m -2.9,0.9 c -0.6,0.1 -1.2,0.3 -1.7,0.5 0.5,-0.2 1.2,-0.4 1.7,-0.5 m -3.8,1.2 c -0.4,0.1 -0.8,0.2 -1.2,0.3 0.4,-0.1 0.7,-0.2 1.2,-0.3 m -4.6,1.4 c -0.2,0 -0.3,0.1 -0.4,0.1 0.1,0 0.3,-0.1 0.4,-0.1 m -3.2,1 c -0.5,0.1 -0.9,0.3 -1.4,0.4 0.5,-0.1 0.9,-0.3 1.4,-0.4 m -3.3,1 c -0.6,0.2 -1.3,0.4 -1.9,0.6 0.7,-0.2 1.3,-0.4 1.9,-0.6 m -4.8,1.5 c -0.5,0.2 -1,0.3 -1.4,0.5 0.5,-0.2 0.9,-0.3 1.4,-0.5 m -3.2,1 c -0.5,0.2 -1,0.3 -1.5,0.5 0.5,-0.2 1,-0.3 1.5,-0.5 m -4,1.3 c -0.3,0.1 -0.6,0.2 -0.9,0.3 0.3,-0.1 0.6,-0.2 0.9,-0.3" style="fill:#b06649;fill-opacity:1;fill-rule:nonzero;stroke:none" id="path164"/>
      <path d="m 26926.3,29048 c 0,0.4 0.1,0.7 0.1,1 0,-0.3 -0.1,-0.6 -0.1,-1 m 0.3,2.9 c 0.1,0.8 0.2,1.5 0.3,2.2 -0.1,-0.8 -0.2,-1.4 -0.3,-2.2 m 0.4,2.9 c 20.4,166.2 36.5,341.5 46.7,524 l 0.1,0.1 c -10.1,-182.5 -26.4,-357.8 -46.8,-524.1" style="fill:#9498d9;fill-opacity:1;fill-rule:nonzero;stroke:none" id="path166"/>
      <path d="m 27664.2,26087.7 c -226.9,52.9 -551.6,134.8 -965.8,255.2 0,0.1 -0.1,0.1 -0.1,0.1 -3.2,0.9 -6.4,1.8 -9.6,2.8 -0.6,0.2 -1.3,0.3 -1.9,0.5 -0.1,0.1 -0.1,0.1 -0.2,0.1 -119.5,34.8 -246.3,72.8 -380.1,114.2 -0.3,0.1 -0.6,0.2 -0.8,0.3 -3.5,1 -7,2.1 -10.5,3.2 -0.3,0.1 -0.5,0.2 -0.8,0.2 -1.8,0.6 -3.6,1.2 -5.4,1.7 -0.2,0.1 -0.4,0.2 -0.6,0.2 -1.2,0.4 -2.6,0.8 -3.8,1.2 -0.6,0.2 -1.2,0.4 -1.9,0.6 -0.5,0.1 -1.1,0.3 -1.6,0.5 -0.4,0.1 -0.9,0.3 -1.4,0.4 -0.6,0.2 -1.3,0.4 -1.9,0.6 -0.3,0.1 -0.6,0.2 -0.8,0.3 -1.5,0.4 -3,0.9 -4.4,1.3 -0.4,0.1 -0.8,0.3 -1.2,0.4 -0.5,0.1 -0.9,0.3 -1.4,0.4 -0.6,0.2 -1.2,0.4 -1.8,0.6 -0.6,0.2 -1,0.3 -1.5,0.5 -1,0.3 -2.1,0.6 -3.1,0.9 -0.1,0 -0.1,0 -0.2,0.1 -1.1,0.3 -2.3,0.7 -3.5,1.1 -0.3,0.1 -0.4,0.1 -0.7,0.2 -1,0.3 -2,0.6 -2.9,0.9 -0.2,0 -0.5,0.1 -0.7,0.2 -0.9,0.3 -1.9,0.6 -2.9,0.9 -0.2,0.1 -0.6,0.2 -0.8,0.3 -1.2,0.3 -2.3,0.7 -3.5,1.1 h -0.1 c -0.9,0.3 -1.9,0.6 -2.8,0.9 -0.5,0.1 -1.2,0.3 -1.7,0.5 -0.8,0.2 -1.4,0.4 -2.1,0.7 -0.5,0.1 -0.8,0.2 -1.2,0.3 -1.1,0.4 -2.3,0.7 -3.4,1.1 -0.1,0 -0.3,0.1 -0.4,0.1 -0.9,0.3 -1.9,0.6 -2.8,0.9 -0.5,0.1 -0.9,0.3 -1.4,0.4 -0.6,0.2 -1.2,0.4 -1.9,0.6 -0.6,0.2 -1.2,0.4 -1.9,0.6 -1,0.3 -2,0.6 -2.9,0.9 -0.5,0.2 -0.9,0.3 -1.4,0.5 -0.6,0.1 -1.2,0.3 -1.8,0.5 -0.5,0.2 -1,0.3 -1.5,0.5 -0.9,0.3 -1.7,0.5 -2.5,0.8 -0.3,0.1 -0.6,0.2 -0.9,0.3 -1.2,0.3 -2.3,0.7 -3.5,1 v 0 c 125.2,272.2 552.1,1270.9 711.2,2552 0.3,2.2 0.6,4.5 0.9,6.7 0,0.4 0.1,0.7 0.1,1 0.1,0.7 0.2,1.3 0.2,1.9 0.1,0.8 0.2,1.4 0.3,2.2 0,0.2 0.1,0.4 0.1,0.7 20.4,166.3 36.7,341.6 46.8,524.1 305.1,245.6 535.9,563.2 664.6,963.6 0,0 1071.7,-1389.5 25.8,-4453.8" style="fill:#12a56f;fill-opacity:1;fill-rule:nonzero;stroke:none" id="path168"/>
      <path d="m 21429.6,28416.2 c -1315.7,633.4 -2373.1,1192.5 -3193.3,1653 v 0 c 820.2,-460.5 1877.6,-1019.6 3193.3,-1653 9.4,16.4 20.9,36.3 34.3,59.7 -13.4,-23.3 -24.9,-43.3 -34.3,-59.7 m 36.1,62.9 c 0.1,0.2 0.2,0.3 0.2,0.4 0,-0.1 -0.1,-0.2 -0.2,-0.4" style="fill:#b06649;fill-opacity:1;fill-rule:nonzero;stroke:none" id="path170"/>
      <path d="m 21429.6,28416.2 c -1315.7,633.4 -2373.1,1192.5 -3193.3,1653 -256.1,143.8 -489.1,277.9 -699.6,401.8 72.9,173.8 328.1,741.9 802.9,1404.4 334.7,-569.2 916.3,-1252.8 1927.5,-1853.1 475.7,-282.4 1048.1,-528.8 1661.7,-719 -210.6,-381.4 -375.9,-672 -462.9,-823.8 0,-0.1 -0.1,-0.2 -0.2,-0.4 -0.6,-1.1 -1.2,-2.1 -1.8,-3.2 -13.4,-23.4 -24.9,-43.3 -34.3,-59.7" style="fill:#12a56f;fill-opacity:1;fill-rule:nonzero;stroke:none" id="path172"/>
      <path d="m 17994.6,31607.6 c 81.7,127.2 172.2,260.5 271.8,397.4 0,-0.1 0,-0.1 0,-0.1 -99.6,-136.8 -190.1,-270.1 -271.8,-397.3 -0.1,-0.1 0.1,0 0,0" style="fill:#9498d9;fill-opacity:1;fill-rule:nonzero;stroke:none" id="path174"/>
      <path d="m 17419.7,30540 c -1.5,0.9 -2.9,1.7 -4.4,2.6 1.5,-0.9 2.9,-1.7 4.4,-2.6 0.2,0.4 0.3,0.8 0.5,1.2 -0.2,-0.4 -0.3,-0.8 -0.5,-1.2 m 0.5,1.2 c 45.3,106.4 140.9,318.4 292.3,593 v 0.1 c -151.4,-274.7 -247,-486.7 -292.3,-593.1 m -5.7,1.9 c -1,0.6 -2.1,1.2 -3.1,1.8 1,-0.6 2.1,-1.2 3.1,-1.8 m -4.5,2.7 c -1.4,0.8 -2.7,1.6 -4.1,2.4 1.3,-0.8 2.8,-1.6 4.1,-2.4 m -4.6,2.7 c -1.1,0.7 -2.2,1.3 -3.4,2 1.1,-0.7 2.3,-1.4 3.4,-2 m -5.1,3 c -1.3,0.8 -2.5,1.5 -3.8,2.3 1.3,-0.8 2.6,-1.5 3.8,-2.3 m -3.8,2.3 c -1.4,0.8 -2.8,1.6 -4.2,2.5 1.4,-0.9 2.8,-1.7 4.2,-2.5 m -5.2,3.1 c -1.2,0.7 -2.5,1.4 -3.7,2.2 1.2,-0.8 2.5,-1.5 3.7,-2.2 m -4.1,2.4 c -1.3,0.8 -2.7,1.6 -4,2.4 1.3,-0.8 2.7,-1.6 4,-2.4 m -5.6,3.3 c -1,0.6 -1.9,1.2 -3,1.8 1.1,-0.6 2,-1.2 3,-1.8 m -3.9,2.3 c -2.7,1.7 -5.5,3.3 -8.2,5 2.7,-1.7 5.5,-3.3 8.2,-5 m -9.4,5.7 c -1,0.6 -2,1.2 -3,1.8 1,-0.6 2,-1.3 3,-1.8 m -4.3,2.5 c -1.3,0.8 -2.6,1.6 -3.8,2.3 1.2,-0.8 2.5,-1.5 3.8,-2.3 m -4.9,2.9 c -1.1,0.7 -2.2,1.3 -3.3,2 1.1,-0.7 2.2,-1.3 3.3,-2 m -4.1,2.5 c -2.8,1.6 -5.5,3.3 -8.3,4.9 2.8,-1.6 5.5,-3.3 8.3,-4.9 m -9.5,5.6 c -2.7,1.7 -5.4,3.3 -8.1,4.9 2.7,-1.6 5.4,-3.2 8.1,-4.9 m -8.6,5.2 c -5.9,3.5 -11.7,7 -17.6,10.5 5.9,-3.5 11.7,-7 17.6,-10.5 m -17.7,10.5 c -2.9,1.8 -5.9,3.6 -8.8,5.3 2.9,-1.7 5.8,-3.5 8.8,-5.3 m -8.9,5.4 c -2.9,1.7 -5.9,3.5 -8.8,5.2 2.9,-1.7 5.8,-3.5 8.8,-5.2 m -9.1,5.4 c -47.4,28.4 -93.4,56.1 -138.1,83.2 44.7,-27.1 90.7,-54.8 138.1,-83.2 m -138.1,83.2 c -1.3,0.8 -2.6,1.5 -3.9,2.3 1.3,-0.8 2.6,-1.5 3.9,-2.3 m -5,3 c -0.9,0.5 -1.7,1.1 -2.6,1.6 0.8,-0.5 1.7,-1.1 2.6,-1.6 m -3.8,2.3 c -1.2,0.8 -2.4,1.5 -3.7,2.3 1.2,-0.8 2.5,-1.6 3.7,-2.3 m -4,2.4 c -1.1,0.7 -2.2,1.3 -3.2,2 1,-0.7 2.2,-1.3 3.2,-2 m -5,3 c -0.7,0.5 -1.4,0.9 -2.1,1.3 0.7,-0.4 1.4,-0.9 2.1,-1.3 m -3.4,2.1 c -0.6,0.4 -1.2,0.7 -1.8,1.1 0.6,-0.3 1.2,-0.7 1.8,-1.1 m -5.6,3.4 c -0.4,0.2 -0.8,0.5 -1.2,0.7 0.4,-0.2 0.8,-0.5 1.2,-0.7 m -3.2,1.9 c -0.7,0.5 -1.5,1 -2.3,1.5 0.8,-0.5 1.6,-1 2.3,-1.5 m -4.2,2.6 c -0.9,0.5 -1.8,1.1 -2.6,1.6 0.8,-0.5 1.7,-1.1 2.6,-1.6 m -4.1,2.5 c -0.7,0.4 -1.2,0.7 -1.8,1.1 0.6,-0.4 1.2,-0.7 1.8,-1.1 m -6.2,3.8 c -0.2,0.1 -0.5,0.3 -0.7,0.4 0.2,-0.2 0.5,-0.3 0.7,-0.4 m -3.2,1.9 c -0.2,0.1 -0.4,0.2 -0.6,0.4 0.2,-0.2 0.4,-0.3 0.6,-0.4 m -3.3,2 c 0,0 -0.1,0.1 -0.1,0.1 0,0 0.1,-0.1 0.1,-0.1" style="fill:#b68c82;fill-opacity:1;fill-rule:nonzero;stroke:none" id="path176"/>
      <path d="m 17712.5,31134.2 c 78.7,142.9 172.5,302.7 282.1,473.4 0.1,0 -0.1,-0.1 0,0 -109.6,-170.7 -203.4,-330.5 -282.1,-473.3 v -0.1" style="fill:#021168;fill-opacity:1;fill-rule:nonzero;stroke:none" id="path178"/>
      <path d="m 17419.7,30540 c -1.5,0.9 -2.9,1.7 -4.4,2.6 -0.2,0.2 -0.5,0.3 -0.8,0.5 -1,0.6 -2.1,1.2 -3.1,1.8 -0.4,0.3 -0.9,0.6 -1.4,0.9 -1.3,0.8 -2.8,1.6 -4.1,2.4 -0.1,0.1 -0.4,0.2 -0.5,0.3 -1.1,0.6 -2.3,1.3 -3.4,2 -0.5,0.3 -1.1,0.7 -1.7,1 -1.2,0.8 -2.5,1.5 -3.8,2.3 v 0 c -1.4,0.8 -2.8,1.6 -4.2,2.5 -0.3,0.2 -0.7,0.4 -1,0.6 -1.2,0.7 -2.5,1.4 -3.7,2.2 -0.1,0 -0.3,0.1 -0.4,0.2 -1.3,0.8 -2.7,1.6 -4,2.4 -0.5,0.3 -1,0.6 -1.6,0.9 -1,0.6 -1.9,1.2 -3,1.8 -0.2,0.2 -0.6,0.4 -0.9,0.5 -2.7,1.7 -5.5,3.3 -8.2,5 -0.4,0.2 -0.8,0.4 -1.2,0.7 -1,0.5 -2,1.2 -3,1.8 -0.5,0.2 -0.9,0.5 -1.3,0.7 -1.3,0.8 -2.6,1.5 -3.8,2.3 -0.4,0.2 -0.7,0.4 -1.1,0.6 -1.1,0.7 -2.2,1.3 -3.3,2 -0.3,0.2 -0.6,0.3 -0.8,0.5 -2.8,1.6 -5.5,3.3 -8.3,4.9 -0.4,0.3 -0.8,0.5 -1.2,0.7 -2.7,1.7 -5.4,3.3 -8.1,4.9 -0.2,0.1 -0.3,0.2 -0.5,0.3 -5.9,3.5 -11.7,7 -17.6,10.5 0,0 0,0 -0.1,0 -3,1.8 -5.9,3.6 -8.8,5.3 -0.1,0.1 -0.1,0.1 -0.1,0.1 -3,1.7 -5.9,3.5 -8.8,5.2 -0.1,0.1 -0.2,0.2 -0.3,0.2 -47.4,28.4 -93.4,56.1 -138.1,83.2 v 0 c -1.3,0.8 -2.6,1.5 -3.9,2.3 -0.3,0.2 -0.7,0.5 -1.1,0.7 -0.9,0.5 -1.8,1.1 -2.6,1.6 -0.4,0.2 -0.8,0.5 -1.2,0.7 -1.2,0.7 -2.5,1.5 -3.7,2.3 -0.1,0 -0.2,0.1 -0.3,0.1 -1,0.7 -2.2,1.3 -3.2,2 -0.6,0.3 -1.2,0.7 -1.8,1 -0.7,0.4 -1.4,0.9 -2.1,1.3 -0.4,0.3 -0.9,0.6 -1.3,0.8 -0.6,0.4 -1.2,0.8 -1.8,1.1 -1.3,0.8 -2.5,1.5 -3.8,2.3 -0.4,0.2 -0.8,0.5 -1.2,0.7 -0.6,0.4 -1.3,0.8 -2,1.2 -0.7,0.5 -1.5,1 -2.3,1.5 -0.6,0.3 -1.3,0.7 -1.9,1.1 -0.9,0.5 -1.8,1.1 -2.6,1.6 -0.5,0.3 -1,0.6 -1.5,0.9 -0.6,0.4 -1.2,0.7 -1.8,1.1 -1.5,0.9 -2.9,1.8 -4.4,2.7 -0.2,0.1 -0.5,0.2 -0.7,0.4 -0.8,0.5 -1.7,1 -2.5,1.5 -0.2,0.1 -0.4,0.2 -0.6,0.4 -0.9,0.5 -1.8,1 -2.7,1.6 0,0 -0.1,0.1 -0.1,0.1 -405.9,246.8 -697.2,436.7 -882.2,561.3 158.2,200.9 1077.7,1354.8 1661.5,1800.3 0,0 37.6,-457.3 375.1,-1081.5 -99.6,-136.8 -190.1,-270.1 -271.8,-397.3 -109.6,-170.7 -203.4,-330.5 -282.1,-473.4 -151.4,-274.6 -247,-486.6 -292.3,-593 0,0 0,0 0,0 -0.2,-0.4 -0.3,-0.8 -0.5,-1.2" style="fill:#12a56f;fill-opacity:1;fill-rule:nonzero;stroke:none" id="path180"/>
      <path d="m 25466.7,33936.8 c -0.5,0.6 -1.2,1.5 -1.8,2.1 0.6,-0.7 1.2,-1.4 1.8,-2.1 m -4.1,4.8 c -1.3,1.5 -2.5,3 -3.8,4.6 1.2,-1.6 2.5,-3.1 3.8,-4.6 m -4.1,4.8 c -29.2,34.5 -58.9,68.8 -89.3,103 30.4,-34.2 60.1,-68.5 89.3,-103 m -952,503 c 0.3,1.1 0.7,2.3 1,3.4 -0.3,-1.1 -0.7,-2.3 -1,-3.4" style="fill:#dcdcff;fill-opacity:1;fill-rule:nonzero;stroke:none" id="path182"/>
      <path d="m 25860.8,33413.7 c -230,168.3 -477.9,320.7 -746.2,451.6 -230.8,112.6 -467,209.5 -704.9,293.1 35,100 67.4,197.2 96.8,291 0.3,1.1 0.7,2.3 1,3.4 v 0 c 302.8,-119.3 590.1,-254 861.7,-403.4 v 0 c 30.4,-34.2 60.1,-68.5 89.3,-103 0.1,-0.1 0.2,-0.1 0.3,-0.2 1.3,-1.6 2.5,-3.1 3.8,-4.6 0.8,-0.9 1.6,-1.8 2.3,-2.7 0.6,-0.6 1.3,-1.5 1.8,-2.1 145,-171.8 276,-346.5 394.1,-523.1" style="fill:#74e6aa;fill-opacity:1;fill-rule:nonzero;stroke:none" id="path184"/>
      <path d="m 24362.8,34441.6 c 0.2,0.4 0.3,0.8 0.4,1.2 -0.1,-0.4 -0.2,-0.8 -0.4,-1.2 m 1.1,3.4 c 5.4,16.8 10.6,33.4 15.8,49.9 -5.2,-16.5 -10.4,-33.1 -15.8,-49.9 m 15.8,50.1 c 0.3,0.8 0.5,1.6 0.8,2.5 -0.2,-0.9 -0.5,-1.7 -0.8,-2.5 m -601.2,205.1 c -4.2,0.1 -8.4,0.2 -12.6,0.2 4.2,0 8.4,-0.1 12.6,-0.2" style="fill:#dcdcff;fill-opacity:1;fill-rule:nonzero;stroke:none" id="path186"/>
      <path d="m 24282.3,34201.9 c -632.9,209.1 -1273.7,325.6 -1855.7,386.8 379.8,71.9 785.7,112.8 1219.2,112.8 39.8,0 79.9,-0.4 120.1,-1.1 4.2,0 8.4,-0.1 12.6,-0.2 v 0 c 113.7,-32.7 228.2,-67.3 344.3,-106.5 87.5,-29.6 173.5,-60.8 258.8,-92.8 v 0 c -0.4,-1.1 -0.7,-2.2 -1.1,-3.3 -0.3,-0.9 -0.5,-1.7 -0.8,-2.5 0,-0.1 0,-0.1 0,-0.2 -5.2,-16.5 -10.4,-33.1 -15.8,-49.9 -0.2,-0.7 -0.5,-1.5 -0.7,-2.2 -0.1,-0.4 -0.2,-0.8 -0.4,-1.2 -24.9,-77.8 -51.8,-157.8 -80.5,-239.7" style="fill:#74e6aa;fill-opacity:1;fill-rule:nonzero;stroke:none" id="path188"/>
      <path d="m 28106.9,30969.1 v 0.1 -0.1 m -2.3,6.2 c -0.2,0.4 -0.3,0.8 -0.5,1.2 0.2,-0.4 0.3,-0.8 0.5,-1.2 m -1928.7,2187.8 c -0.5,0.5 -1,1 -1.5,1.4 -131.8,228 -282.3,454 -455.3,676 173.3,-222.4 324.8,-448.8 456.8,-677.4 m -457.3,678 c -1.3,1.7 -2.7,3.4 -4,5.1 v 0 c 1.3,-1.7 2.7,-3.4 4,-5.1" style="fill:#dcdcff;fill-opacity:1;fill-rule:nonzero;stroke:none" id="path190"/>
      <path d="m 28502.9,29242.2 c -367.7,1133.2 -1016,2795.7 -2327,3920.9 -132,228.6 -283.5,455 -456.8,677.4 -0.2,0.2 -0.3,0.4 -0.5,0.6 -1.3,1.7 -2.7,3.4 -4,5.1 1113,-699.8 1926,-1669.5 2387.2,-2863.7 0.8,-2 1.5,-4 2.3,-6 0.2,-0.4 0.3,-0.8 0.5,-1.2 0.8,-2.1 1.5,-4.1 2.3,-6.1 v -0.1 c 216.3,-564 341.9,-1151.5 396,-1726.9" style="fill:#74e6aa;fill-opacity:1;fill-rule:nonzero;stroke:none" id="path192"/>
      <path d="m 21974.2,34626.7 c -0.2,0 -0.4,0.1 -0.6,0.1 390.2,102.4 810.3,172.2 1261.7,198.7 -451.1,-26.5 -871.1,-96.4 -1261.1,-198.8 m 1261.8,198.9 c 1.3,0.1 2.5,0.1 3.8,0.2 -1.3,-0.1 -2.5,-0.1 -3.8,-0.2 m 6.1,0.3 c 1,0.1 2.1,0.2 3.2,0.2 -1.1,0 -2.1,-0.1 -3.2,-0.2 m 5.9,0.4 c 1,0 2,0.1 3,0.1 -1,0 -2,-0.1 -3,-0.1 m 6.1,0.3 c 0.9,0.1 1.8,0.1 2.7,0.2 -0.9,-0.1 -1.8,-0.1 -2.7,-0.2 m 6.2,0.4 c 0.8,0 1.5,0.1 2.3,0.1 -0.7,0 -1.5,-0.1 -2.3,-0.1" style="fill:#dcdcff;fill-opacity:1;fill-rule:nonzero;stroke:none" id="path194"/>
      <path d="m 20152.1,34591.4 c -9.4,49.2 23.8,99.3 89.7,147.6 506.6,145 1063.5,233.6 1668.5,233.6 428.9,0 882,-44.6 1358.2,-145.2 v 0 c -2,-0.1 -3.9,-0.2 -5.9,-0.3 -0.8,0 -1.5,-0.1 -2.3,-0.1 -1.1,-0.1 -2.3,-0.2 -3.5,-0.2 -0.9,-0.1 -1.8,-0.1 -2.7,-0.2 -1,0 -2.1,-0.1 -3.1,-0.2 -1,0 -2,-0.1 -3,-0.1 -0.9,-0.1 -1.8,-0.1 -2.7,-0.2 -1.1,0 -2.2,-0.1 -3.2,-0.2 -0.8,0 -1.6,0 -2.3,-0.1 -1.3,-0.1 -2.5,-0.1 -3.8,-0.2 -0.2,0 -0.5,0 -0.7,-0.1 -451.4,-26.5 -871.5,-96.3 -1261.7,-198.7 -259.2,16.3 -501,22.5 -718.4,22.5 -666.5,0 -1103.1,-57.9 -1103.1,-57.9" style="fill:#74e6aa;fill-opacity:1;fill-rule:nonzero;stroke:none" id="path196"/>
      <path d="m 25493.2,34136.5 c -15,8.4 -30.1,16.7 -45.2,25.1 -6.2,4.8 -12.6,8.6 -19.8,11 -16.6,9.1 -33.9,17.6 -50.7,26.6 0.1,0.2 0.2,0.5 0.3,0.7 16.9,-9 33.7,-18.2 50.4,-27.3 7.2,-2.4 13.6,-6.2 19.8,-11 15.1,-8.4 30.2,-16.7 45.2,-25.1 41.5,81.1 111.6,239.8 111.7,385.8 -0.1,-146 -70.2,-304.7 -111.7,-385.8 m -1101.4,1038.3 c 0,0 0,0 0,0 v 0 m 0.7,0.3 c 0.1,0 0.1,0 0.1,0 0,0 0,0 -0.1,0" style="fill:#dcdcff;fill-opacity:1;fill-rule:nonzero;stroke:none" id="path198"/>
      <path d="m 25493.2,34136.5 c -15,8.4 -30.1,16.7 -45.2,25.1 -6.2,4.8 -12.6,8.6 -19.8,11 -16.7,9.1 -33.5,18.3 -50.4,27.3 26.3,74 87,342.1 5.4,435.3 -80.1,91.4 -859,384.5 -1090.8,470.3 32.4,32 65.9,56.7 99.4,69.3 v 0 c 0.2,0.1 0.5,0.2 0.7,0.3 0.1,0 0.1,0 0.1,0 0.2,0.1 0.5,0.2 0.8,0.3 14.4,5.2 33.4,7.7 56.3,7.7 267.6,0 1060.3,-338.1 1135.2,-539.4 14.1,-37.9 20,-79.2 20,-121.4 -0.1,-146 -70.2,-304.7 -111.7,-385.8" style="fill:#74e6aa;fill-opacity:1;fill-rule:nonzero;stroke:none" id="path200"/>
      <path d="m 16182,31450.8 c 468.2,-322.7 2193.3,-1455.5 5491.8,-3030.8 3403,-1625.3 5710.9,-2166.2 6261.6,-2280.8 547.1,1121.5 735.7,3098.2 49.2,4841.5 -652,1655.3 -1999.7,2869 -3897.3,3509.8 -2148.3,725.5 -4142.3,416.1 -5926.6,-919.4 -1080.1,-808.5 -1753.5,-1769.7 -1978.7,-2120.3 z m 11850.3,-5688.6 c -10,0 -20,0.9 -30.1,2.6 -24.8,4.3 -2529.8,448.1 -6481.3,2335.3 -3944.7,1883.9 -5665.9,3146.9 -5682.8,3159.4 -72,53.3 -92.9,152 -48.7,229.9 30.1,52.9 751.5,1308.4 2148.5,2357.7 1296.5,973.8 3435.5,1934.1 6262.9,979.3 1999.7,-675.3 3422.2,-1960.2 4113.6,-3715.8 750.5,-1905.5 504.6,-4086.1 -126.2,-5255.2 -31.3,-58.1 -91.6,-93.2 -155.9,-93.2" style="fill:#021168;fill-opacity:1;fill-rule:nonzero;stroke:none" id="path202"/>
      <path d="m 17451.7,30322.6 c -13.9,0 -28.1,2.4 -41.9,7.7 -61,23.1 -91.7,91.3 -68.6,152.3 17.4,46.1 438.5,1140.1 1444.3,2238.3 930.7,1016.2 2557.1,2216.3 5009.4,2165.7 65.2,-1.4 117,-55.4 115.7,-120.7 -1.4,-65.3 -54.8,-118.4 -120.6,-115.7 -1896.1,39.4 -3519.5,-661.1 -4824.4,-2082.7 -977.6,-1064.9 -1399.2,-2157.7 -1403.4,-2168.6 -17.9,-47.3 -62.8,-76.3 -110.5,-76.3" style="fill:#021168;fill-opacity:1;fill-rule:nonzero;stroke:none" id="path204"/>
      <path d="m 21456.2,28209.4 c -20.2,0 -40.6,5.1 -59.3,16 -56.4,32.9 -75.5,105.2 -42.7,161.6 23.5,40.3 2353.5,4054.6 2997.7,6190.1 18.7,62.5 84.7,97.8 147.3,79 62.5,-18.9 97.8,-84.8 79,-147.3 -652.2,-2162.1 -2996.1,-6200.2 -3019.7,-6240.7 -22,-37.7 -61.6,-58.7 -102.3,-58.7" style="fill:#021168;fill-opacity:1;fill-rule:nonzero;stroke:none" id="path206"/>
      <path d="m 26119.2,26327.9 c -17.9,0 -36,4.1 -53.1,12.6 -58.3,29.4 -81.7,100.4 -52.4,158.7 5.4,10.9 547.4,1102.1 728.7,2572.6 166.3,1348 54.4,3302.5 -1423.1,4958.2 -43.4,48.7 -39.2,123.4 9.5,166.9 48.8,43.4 123.5,39.1 166.9,-9.5 1538.5,-1724.2 1654.2,-3753.4 1480.4,-5152.2 -187.6,-1509.4 -728.4,-2596.7 -751.3,-2642.2 -20.8,-41.3 -62.4,-65.1 -105.6,-65.1" style="fill:#021168;fill-opacity:1;fill-rule:nonzero;stroke:none" id="path208"/>
      <path d="m 25520.2,33927.4 c -21.1,0 -42.4,5.7 -61.7,17.5 -55.6,34.1 -73.1,106.9 -38.9,162.5 53.5,88 179.3,353.1 117.4,519.3 -73.8,198.5 -962.1,559.4 -1125.8,501.9 -115.2,-41.9 -260.9,-293.6 -327.6,-459 -24.4,-60.5 -93.2,-89.8 -153.8,-65.4 -60.5,24.4 -89.8,93.1 -65.5,153.6 33.2,82.8 212.1,500.6 466.1,592.9 275.9,100.5 1308.5,-319.6 1428.2,-641.6 112.7,-303.1 -111.6,-682.9 -137.6,-725.2 -22.2,-36.4 -61.1,-56.4 -100.8,-56.5" style="fill:#021168;fill-opacity:1;fill-rule:nonzero;stroke:none" id="path210"/>
      <path d="m 30666.2,22810.4 c -1176.5,0 -3378.7,1845.7 -5123,3659 -67.8,70.5 -65.6,182.8 4.9,250.6 70.6,67.8 182.8,65.8 250.7,-4.8 2545.4,-2646.1 4378.5,-3687.3 5002.5,-3535.7 121.4,29.5 193.5,102.6 233.4,236.9 217.6,731.2 -1593.7,2336 -2786.6,3175.7 -80,56.4 -99.2,167 -42.9,247 56.4,80.1 166.9,99.3 247,43 337.1,-237.3 3283.5,-2353.2 2922.3,-3566.8 -75.8,-254.8 -245,-420.9 -489.5,-480.3 -68.2,-16.6 -141.3,-24.6 -218.8,-24.6" style="fill:#021168;fill-opacity:1;fill-rule:nonzero;stroke:none" id="path212"/>
      <path d="m 17452,26477.4 c -574,51.7 -1096,-582.2 -1165.9,-1415.8 -69.9,-833.6 338.8,-1551.2 912.8,-1602.9 574,-51.7 1096,582.1 1165.9,1415.7 69.9,833.6 -338.8,1551.3 -912.8,1603" style="fill:#390075;fill-opacity:1;fill-rule:nonzero;stroke:none" id="path214"/>
      <path d="m 17415.8,26128.1 c -181.8,-78.4 -257.1,-362.7 -168.2,-635 88.8,-272.4 308.3,-429.6 490.1,-351.1 181.8,78.4 257.1,362.7 168.2,635 -88.9,272.4 -308.3,429.6 -490.1,351.1" style="fill:#ffffff;fill-opacity:1;fill-rule:nonzero;stroke:none" id="path216"/>
      <path d="m 16822,24330.8 c -85.7,-65 -94.4,-221.4 -19.4,-349.3 75.1,-127.8 205.4,-178.8 291.1,-113.7 85.7,65 94.4,221.4 19.4,349.2 -75,127.9 -205.3,178.8 -291.1,113.8" style="fill:#b199c5;fill-opacity:1;fill-rule:nonzero;stroke:none" id="path218"/>
      <path d="m 23310.9,26477.4 c 574,51.7 1096,-582.2 1165.9,-1415.8 69.9,-833.6 -338.8,-1551.2 -912.8,-1602.9 -574,-51.7 -1096,582.1 -1165.9,1415.7 -69.9,833.6 338.8,1551.3 912.8,1603" style="fill:#390075;fill-opacity:1;fill-rule:nonzero;stroke:none" id="path220"/>
      <path d="m 23347.1,26128.1 c 181.8,-78.4 257.1,-362.7 168.2,-635 -88.9,-272.4 -308.3,-429.6 -490.1,-351.1 -181.8,78.4 -257.1,362.7 -168.2,635 88.9,272.4 308.3,429.6 490.1,351.1" style="fill:#ffffff;fill-opacity:1;fill-rule:nonzero;stroke:none" id="path222"/>
      <path d="m 23940.8,24330.8 c 85.8,-65 94.5,-221.4 19.4,-349.3 -75,-127.8 -205.3,-178.8 -291,-113.7 -85.8,65 -94.4,221.4 -19.4,349.2 75,127.9 205.3,178.8 291,113.8" style="fill:#b199c5;fill-opacity:1;fill-rule:nonzero;stroke:none" id="path224"/>
    </g>
  </g>
</svg>